<?xml version="1.0" encoding="utf-8"?>
<!-- Generator: Adobe Illustrator 26.5.0, SVG Export Plug-In . SVG Version: 6.00 Build 0)  -->
<svg version="1.1" id="Layer_1" xmlns="http://www.w3.org/2000/svg" xmlns:xlink="http://www.w3.org/1999/xlink" x="0px" y="0px"
	 viewBox="0 0 960 540" style="enable-background:new 0 0 960 540;" xml:space="preserve">
<style type="text/css">
	.st0{fill:#666666;}
	.st1{fill:#EFCC00;}
	.st2{fill:none;stroke:#EFCC00;stroke-width:4;stroke-miterlimit:10;}
	.st3{fill:none;stroke:#EFCC00;stroke-width:4;stroke-miterlimit:10;stroke-dasharray:11.6625,11.6625;}
	.st4{fill:none;stroke:#EFCC00;stroke-width:4;stroke-miterlimit:10;stroke-dasharray:12.1435,12.1435;}
	.st5{fill:#A0A0A0;}
	.st6{fill:#EFEFEF;}
	.st7{font-family:'MyriadPro-Regular';}
	.st8{font-size:18px;}
	.st9{font-family:'KozGoPr6N-Regular-83pv-RKSJ-H';}
	.st10{fill:none;stroke:#000000;stroke-miterlimit:10;}
</style>
<ellipse class="st0" cx="593" cy="426.2" rx="202.1" ry="26.7"/>
<path class="st1" d="M212.9,97.5c15.5,0,28.1,12.6,28.1,28.1s-12.6,28.1-28.1,28.1s-28.1-12.6-28.1-28.1S197.4,97.5,212.9,97.5z
	 M216.3,90.9V81c0-1.8-1.5-3.3-3.3-3.3s-3.3,1.5-3.3,3.3v9.9c0,1.8,1.5,3.3,3.3,3.3S216.3,92.7,216.3,90.9z M216.3,170.4v-9.9
	c0-1.8-1.5-3.3-3.3-3.3s-3.3,1.5-3.3,3.3v9.9c0,1.8,1.5,3.3,3.3,3.3S216.3,172.2,216.3,170.4z M260.9,125.7c0-1.8-1.5-3.3-3.3-3.3
	h-9.9c-1.8,0-3.3,1.5-3.3,3.3s1.5,3.3,3.3,3.3h9.9C259.5,129,260.9,127.5,260.9,125.7z M181.5,125.7c0-1.8-1.5-3.3-3.3-3.3h-9.9
	c-1.8,0-3.3,1.5-3.3,3.3s1.5,3.3,3.3,3.3h9.9C180,129,181.5,127.5,181.5,125.7z M239.9,103.4l7-7c1.3-1.3,1.3-3.4,0-4.7
	s-3.4-1.3-4.7,0l-7,7c-1.3,1.3-1.3,3.4,0,4.7c0.6,0.6,1.5,1,2.3,1S239.2,104.1,239.9,103.4L239.9,103.4z M183.7,159.6l7-7
	c1.3-1.3,1.3-3.4,0-4.7s-3.4-1.3-4.7,0l-7,7c-1.3,1.3-1.3,3.4,0,4.7c0.6,0.6,1.5,1,2.3,1S183,160.3,183.7,159.6z M246.9,159.6
	c1.3-1.3,1.3-3.4,0-4.7l-7-7c-1.3-1.3-3.4-1.3-4.7,0s-1.3,3.4,0,4.7l7,7c0.6,0.6,1.5,1,2.3,1S246.2,160.3,246.9,159.6z M190.7,103.4
	c1.3-1.3,1.3-3.4,0-4.7l-7-7c-1.3-1.3-3.4-1.3-4.7,0s-1.3,3.4,0,4.7l7,7c0.6,0.6,1.5,1,2.3,1S190.1,104.1,190.7,103.4z"/>
<g>
	<path class="st1" d="M364.5,256.2l-0.4,16c0,0.9-0.4,1.8-1,2.4c-0.7,0.7-1.5,1.1-2.4,1l-16,0.4c-1.9,0-3.4-1.5-3.4-3.4
		s1.6-3.5,3.5-3.5l7.7-0.2l-95.2-95.2c-1.3-1.3-1.3-3.5,0.1-4.9c1.4-1.4,3.6-1.4,4.9-0.1l95.2,95.2l0.2-7.7c0-1.9,1.6-3.5,3.5-3.5
		C363,252.8,364.6,254.3,364.5,256.2L364.5,256.2z"/>
</g>
<g>
	<g>
		<line class="st2" x1="212.9" y1="124.6" x2="216" y2="129.7"/>
		<line class="st3" x1="221.9" y1="139.8" x2="384.9" y2="416"/>
		<line class="st2" x1="387.9" y1="421" x2="390.9" y2="426.2"/>
	</g>
</g>
<g>
	<g>
		<line class="st2" x1="212.9" y1="124.6" x2="218.3" y2="127.3"/>
		<line class="st4" x1="229.1" y1="132.9" x2="784.3" y2="420.6"/>
		<line class="st2" x1="789.7" y1="423.4" x2="795.1" y2="426.2"/>
	</g>
</g>
<g>
	<g>
		
			<ellipse transform="matrix(0.7071 -0.7071 0.7071 0.7071 -111.0954 411.1335)" class="st5" cx="440.7" cy="339.7" rx="87.5" ry="87.5"/>
		<path d="M440.7,253.1c47.8,0,86.5,38.7,86.5,86.5s-38.7,86.5-86.5,86.5s-86.5-38.7-86.5-86.5S392.9,253.1,440.7,253.1
			 M440.7,251.1c-48.8,0-88.5,39.7-88.5,88.5s39.7,88.5,88.5,88.5s88.5-39.7,88.5-88.5S489.5,251.1,440.7,251.1L440.7,251.1z"/>
	</g>
	<path class="st6" d="M379.5,400.9c-33.8-33.8-33.8-88.6,0-122.4s88.6-33.8,122.4,0c16.9,16.9,3.2,58-30.6,91.8
		S396.4,417.8,379.5,400.9z"/>
</g>
<text transform="matrix(1 0 0 1 808.4396 357.1992)"><tspan x="0" y="0" class="st7 st8">shadow</tspan><tspan x="59.1" y="0" class="st9 st8">（影）</tspan></text>
<text transform="matrix(1 0 0 1 638.3953 295.1602)"><tspan x="0" y="0" class="st7 st8">shade</tspan><tspan x="45" y="0" class="st9 st8">（陰）</tspan></text>
<polyline class="st10" points="509.2,364.6 623.9,301.1 725.8,301.1 "/>
<polyline class="st10" points="685.1,428 799.9,364.6 901.8,364.6 "/>
</svg>
