<svg height="1024" viewBox="0 0 128 128" width="1024" xmlns="http://www.w3.org/2000/svg"><path d="m1.5 1.5h125v125h-125z" fill="#c1c7db"/><path d="m125 3v122h-122v-122zm3-3h-128v128h128z" fill="#0039b7"/><g stroke-miterlimit="10" stroke-width="5"><path d="m70 6.55 13.84 29.33c.96 2.04 2.82 3.45 4.98 3.78l30.96 4.7c5.42.82 7.59 7.79 3.66 11.79l-22.4 22.83c-1.56 1.59-2.27 3.88-1.9 6.12l5.29 32.24c.93 5.65-4.74 9.95-9.59 7.29l-27.69-15.22c-1.93-1.06-4.23-1.06-6.15 0l-27.69 15.22c-4.85 2.67-10.52-1.64-9.59-7.29l5.29-32.24c.37-2.24-.34-4.53-1.9-6.12l-22.41-22.82c-3.92-4-1.76-10.97 3.66-11.79l30.96-4.7c2.15-.33 4.01-1.74 4.98-3.78l13.85-29.34c2.42-5.14 9.43-5.14 11.85 0z" fill="#ffed23" stroke="#5c3290"/><g fill="none" stroke="#fff" stroke-linecap="round"><path d="m16.24 50.31 13.48-2.21"/><path d="m51.58 40.19 7.39-16.38"/><path d="m62.61 15.77.67-1.49"/></g></g></svg>