<svg height="540" viewBox="0 0 960 540" width="960" xmlns="http://www.w3.org/2000/svg"><path d="m480 61.86c15.54 0 28.14 12.6 28.14 28.14s-12.6 28.14-28.14 28.14-28.14-12.6-28.14-28.14 12.6-28.14 28.14-28.14zm3.31-6.62v-9.93c0-1.83-1.48-3.31-3.31-3.31s-3.31 1.48-3.31 3.31v9.93c0 1.83 1.48 3.31 3.31 3.31s3.31-1.48 3.31-3.31zm0 79.45v-9.93c0-1.83-1.48-3.31-3.31-3.31s-3.31 1.48-3.31 3.31v9.93c0 1.83 1.48 3.31 3.31 3.31s3.31-1.48 3.31-3.31zm44.69-44.69c0-1.83-1.48-3.31-3.31-3.31h-9.93c-1.83 0-3.31 1.48-3.31 3.31s1.48 3.31 3.31 3.31h9.93c1.83 0 3.31-1.48 3.31-3.31zm-79.45 0c0-1.83-1.48-3.31-3.31-3.31h-9.93c-1.83 0-3.31 1.48-3.31 3.31s1.48 3.31 3.31 3.31h9.93c1.83 0 3.31-1.48 3.31-3.31zm58.37-22.24 7.02-7.02c1.29-1.29 1.29-3.39 0-4.68s-3.39-1.29-4.68 0l-7.02 7.02c-1.29 1.29-1.29 3.39 0 4.68.65.65 1.49.97 2.34.97s1.69-.32 2.34-.97zm-56.18 56.18 7.02-7.02c1.29-1.29 1.29-3.39 0-4.68s-3.39-1.29-4.68 0l-7.02 7.02c-1.29 1.29-1.29 3.39 0 4.68.65.65 1.49.97 2.34.97s1.69-.32 2.34-.97zm63.2 0c1.29-1.29 1.29-3.39 0-4.68l-7.02-7.02c-1.29-1.29-3.39-1.29-4.68 0s-1.29 3.39 0 4.68l7.02 7.02c.65.65 1.49.97 2.34.97s1.69-.32 2.34-.97zm-56.18-56.18c1.29-1.29 1.29-3.39 0-4.68l-7.02-7.02c-1.29-1.29-3.39-1.29-4.68 0s-1.29 3.39 0 4.68l7.02 7.02c.65.65 1.49.97 2.34.97s1.69-.32 2.34-.97z" fill="#efcc00"/><path d="m480 345-38.06 11.67v43.95l38.06 11.67 38.06-11.67v-43.95l-38.06-11.68zm30.86 12.54-30.86 8.87-30.86-8.87 30.86-8.66zm-65.56 2.32 33.02 9.93v38.16l-33.02-9.26zm36.38 48.09v-38.16l33.02-9.92v38.83l-33.02 9.26z" fill="#242d3c"/><g fill="#efcc00"><path d="m47.7 389.52-4.49 15.36c-.22.89-.81 1.61-1.64 2.09s-1.74.62-2.63.38l-15.58-3.76c-1.85-.45-2.92-2.3-2.38-4.12s2.46-2.94 4.31-2.49l7.46 1.81-127.31-220.51c-.93-1.61-.32-3.71 1.37-4.68s3.81-.46 4.74 1.16l127.3 220.49 2.15-7.38c.54-1.82 2.46-2.94 4.31-2.49 1.85.46 2.92 2.3 2.39 4.13z"/><path d="m147.7 389.52-4.49 15.36c-.22.89-.81 1.61-1.64 2.09s-1.74.62-2.63.38l-15.58-3.76c-1.85-.45-2.92-2.3-2.38-4.12s2.46-2.94 4.31-2.49l7.46 1.81-127.31-220.51c-.93-1.61-.32-3.71 1.37-4.68s3.81-.46 4.74 1.16l127.3 220.5 2.15-7.38c.54-1.82 2.46-2.94 4.31-2.49 1.85.46 2.92 2.3 2.39 4.13z"/><path d="m247.7 389.52-4.49 15.36c-.22.89-.81 1.61-1.64 2.09s-1.74.62-2.63.38l-15.58-3.76c-1.85-.45-2.92-2.3-2.38-4.12s2.46-2.94 4.31-2.49l7.46 1.81-127.31-220.51c-.93-1.61-.32-3.71 1.37-4.68s3.81-.46 4.74 1.16l127.3 220.5 2.15-7.38c.54-1.82 2.46-2.94 4.31-2.49 1.85.46 2.92 2.3 2.39 4.13z"/><path d="m347.7 389.52-4.49 15.36c-.22.89-.81 1.61-1.64 2.09s-1.74.62-2.63.38l-15.58-3.76c-1.85-.45-2.92-2.3-2.38-4.12s2.46-2.94 4.31-2.49l7.46 1.81-127.3-220.5c-.93-1.61-.32-3.71 1.37-4.68s3.81-.46 4.74 1.16l127.3 220.5 2.15-7.38c.54-1.82 2.46-2.94 4.31-2.49 1.85.46 2.92 2.3 2.39 4.13z"/><path d="m447.7 389.52-4.49 15.36c-.22.89-.81 1.61-1.64 2.09s-1.74.62-2.63.38l-15.58-3.76c-1.85-.45-2.92-2.3-2.38-4.12s2.46-2.94 4.31-2.49l7.46 1.81-127.3-220.5c-.93-1.61-.32-3.71 1.37-4.68s3.81-.46 4.74 1.16l127.3 220.5 2.15-7.38c.54-1.82 2.46-2.94 4.31-2.49 1.85.46 2.92 2.3 2.39 4.13z"/><path d="m547.7 389.52-4.49 15.36c-.22.89-.81 1.61-1.64 2.09s-1.74.62-2.63.38l-15.58-3.76c-1.85-.45-2.92-2.3-2.38-4.12s2.46-2.94 4.31-2.49l7.46 1.81-127.3-220.5c-.93-1.61-.32-3.71 1.37-4.68s3.81-.46 4.74 1.16l127.3 220.5 2.15-7.38c.54-1.82 2.46-2.94 4.31-2.49 1.85.46 2.92 2.3 2.39 4.13z"/><path d="m647.7 389.52-4.49 15.36c-.22.89-.81 1.61-1.64 2.09s-1.74.62-2.63.38l-15.58-3.76c-1.85-.45-2.92-2.3-2.38-4.12s2.46-2.94 4.31-2.49l7.46 1.81-127.3-220.5c-.93-1.61-.32-3.71 1.37-4.68s3.81-.46 4.74 1.16l127.3 220.5 2.15-7.38c.54-1.82 2.46-2.94 4.31-2.49 1.85.46 2.92 2.3 2.39 4.13z"/><path d="m747.7 389.52-4.49 15.36c-.22.89-.81 1.61-1.64 2.09s-1.74.62-2.63.38l-15.58-3.76c-1.85-.45-2.92-2.3-2.38-4.12s2.46-2.94 4.31-2.49l7.46 1.81-127.3-220.5c-.93-1.61-.32-3.71 1.37-4.68s3.81-.46 4.74 1.16l127.3 220.5 2.15-7.38c.54-1.82 2.46-2.94 4.31-2.49 1.85.46 2.92 2.3 2.39 4.13z"/><path d="m847.7 389.52-4.49 15.36c-.22.89-.81 1.61-1.64 2.09s-1.74.62-2.63.38l-15.58-3.76c-1.85-.45-2.92-2.3-2.38-4.12s2.46-2.94 4.31-2.49l7.46 1.81-127.3-220.5c-.93-1.61-.32-3.71 1.37-4.68s3.81-.46 4.74 1.16l127.3 220.5 2.15-7.38c.54-1.82 2.46-2.94 4.31-2.49 1.85.46 2.92 2.3 2.39 4.13z"/><path d="m947.7 389.52-4.49 15.36c-.22.89-.81 1.61-1.64 2.09s-1.74.62-2.63.38l-15.58-3.76c-1.85-.45-2.92-2.3-2.38-4.12s2.46-2.94 4.31-2.49l7.46 1.81-127.3-220.5c-.93-1.61-.32-3.71 1.37-4.68s3.81-.46 4.74 1.16l127.3 220.5 2.15-7.38c.54-1.82 2.46-2.94 4.31-2.49 1.85.46 2.92 2.3 2.39 4.13z"/><path d="m1047.7 389.52-4.49 15.36c-.22.89-.81 1.61-1.64 2.09s-1.74.62-2.63.38l-15.58-3.76c-1.85-.45-2.92-2.3-2.38-4.12s2.46-2.94 4.31-2.49l7.46 1.81-127.3-220.5c-.93-1.61-.32-3.71 1.37-4.68s3.81-.46 4.74 1.16l127.3 220.5 2.15-7.38c.54-1.82 2.46-2.94 4.31-2.49 1.85.46 2.92 2.3 2.39 4.13z"/></g></svg>