<svg height="540" viewBox="0 0 960 540" width="960" xmlns="http://www.w3.org/2000/svg"><path d="m667.48 426.41 11.57-11.05c.64-.66 1.51-.99 2.47-.99s1.82.33 2.47.99l11.61 11.05c1.38 1.31 1.38 3.45 0 4.76s-3.6 1.31-4.98 0l-5.55-5.3v54.61c0 1.86-1.58 3.37-3.53 3.37s-3.53-1.51-3.53-3.37v-54.61l-5.55 5.31c-1.38 1.31-3.6 1.31-4.98 0-1.38-1.32-1.38-3.45 0-4.77z" fill="#a3710d"/><path d="m567.48 426.41 11.57-11.05c.64-.66 1.51-.99 2.47-.99s1.82.33 2.47.99l11.61 11.05c1.38 1.31 1.38 3.45 0 4.76s-3.6 1.31-4.98 0l-5.55-5.3v54.61c0 1.86-1.58 3.37-3.53 3.37s-3.53-1.51-3.53-3.37v-54.61l-5.55 5.31c-1.38 1.31-3.6 1.31-4.98 0-1.38-1.32-1.38-3.45 0-4.77z" fill="#a3710d"/><path d="m467.48 426.41 11.57-11.05c.64-.66 1.51-.99 2.47-.99s1.82.33 2.47.99l11.61 11.05c1.38 1.31 1.38 3.45 0 4.76s-3.6 1.31-4.98 0l-5.55-5.3v54.61c0 1.86-1.58 3.37-3.53 3.37s-3.53-1.51-3.53-3.37v-54.61l-5.55 5.31c-1.38 1.31-3.6 1.31-4.98 0-1.38-1.32-1.38-3.45 0-4.77z" fill="#a3710d"/><path d="m367.48 426.41 11.57-11.05c.64-.66 1.51-.99 2.47-.99s1.82.33 2.47.99l11.61 11.05c1.38 1.31 1.38 3.45 0 4.76s-3.6 1.31-4.98 0l-5.55-5.3v54.61c0 1.86-1.58 3.37-3.53 3.37s-3.53-1.51-3.53-3.37v-54.61l-5.55 5.31c-1.38 1.31-3.6 1.31-4.98 0-1.38-1.32-1.38-3.45 0-4.77z" fill="#a3710d"/><path d="m267.48 426.41 11.57-11.05c.64-.66 1.51-.99 2.47-.99s1.82.33 2.47.99l11.61 11.05c1.38 1.31 1.38 3.45 0 4.76s-3.6 1.31-4.98 0l-5.55-5.3v54.61c0 1.86-1.58 3.37-3.53 3.37s-3.53-1.51-3.53-3.37v-54.61l-5.55 5.31c-1.38 1.31-3.6 1.31-4.98 0-1.38-1.32-1.38-3.45 0-4.77z" fill="#a3710d"/><g fill="#efcc00"><path d="m480 301.86c15.54 0 28.14 12.6 28.14 28.14s-12.6 28.14-28.14 28.14-28.14-12.6-28.14-28.14 12.6-28.14 28.14-28.14zm3.31-6.62v-9.93c0-1.83-1.48-3.31-3.31-3.31s-3.31 1.48-3.31 3.31v9.93c0 1.83 1.48 3.31 3.31 3.31s3.31-1.48 3.31-3.31zm0 79.45v-9.93c0-1.83-1.48-3.31-3.31-3.31s-3.31 1.48-3.31 3.31v9.93c0 1.83 1.48 3.31 3.31 3.31s3.31-1.48 3.31-3.31zm44.69-44.69c0-1.83-1.48-3.31-3.31-3.31h-9.93c-1.83 0-3.31 1.48-3.31 3.31s1.48 3.31 3.31 3.31h9.93c1.83 0 3.31-1.48 3.31-3.31zm-79.45 0c0-1.83-1.48-3.31-3.31-3.31h-9.93c-1.83 0-3.31 1.48-3.31 3.31s1.48 3.31 3.31 3.31h9.93c1.83 0 3.31-1.48 3.31-3.31zm58.37-22.24 7.02-7.02c1.29-1.29 1.29-3.39 0-4.68s-3.39-1.29-4.68 0l-7.02 7.02c-1.29 1.29-1.29 3.39 0 4.68.65.65 1.49.97 2.34.97s1.69-.32 2.34-.97zm-56.18 56.18 7.02-7.02c1.29-1.29 1.29-3.39 0-4.68s-3.39-1.29-4.68 0l-7.02 7.02c-1.29 1.29-1.29 3.39 0 4.68.65.65 1.49.97 2.34.97s1.69-.32 2.34-.97zm63.2 0c1.29-1.29 1.29-3.39 0-4.68l-7.02-7.02c-1.29-1.29-3.39-1.29-4.68 0s-1.29 3.39 0 4.68l7.02 7.02c.65.65 1.49.97 2.34.97s1.69-.32 2.34-.97zm-56.18-56.18c1.29-1.29 1.29-3.39 0-4.68l-7.02-7.02c-1.29-1.29-3.39-1.29-4.68 0s-1.29 3.39 0 4.68l7.02 7.02c.65.65 1.49.97 2.34.97s1.69-.32 2.34-.97z"/><path d="m302.39 323.77 11.05 11.57c.66.64.99 1.51.99 2.47s-.33 1.82-.99 2.47l-11.05 11.61c-1.31 1.38-3.45 1.38-4.76 0s-1.31-3.6 0-4.98l5.3-5.55h-134.6c-1.86 0-3.37-1.58-3.37-3.53s1.51-3.53 3.37-3.53h134.61l-5.31-5.55c-1.31-1.38-1.31-3.6 0-4.98 1.32-1.38 3.45-1.38 4.77 0z"/><path d="m333.31 237.08 3.79 15.55c.25.88.1 1.8-.38 2.63s-1.2 1.41-2.09 1.64l-15.38 4.53c-1.82.54-3.68-.53-4.12-2.38-.45-1.85.67-3.78 2.49-4.31l7.37-2.16-116.57-67.3c-1.61-.93-2.13-3.05-1.16-4.74s3.07-2.3 4.68-1.37l116.57 67.3-1.82-7.47c-.45-1.85.67-3.78 2.49-4.31 1.83-.53 3.68.53 4.13 2.39z"/><path d="m403.43 177.47-4.49 15.36c-.22.89-.81 1.61-1.64 2.09s-1.74.62-2.63.38l-15.58-3.76c-1.85-.45-2.92-2.3-2.38-4.12s2.46-2.94 4.31-2.49l7.46 1.81-67.3-116.57c-.93-1.61-.32-3.71 1.37-4.68s3.81-.46 4.74 1.16l67.3 116.57 2.15-7.38c.54-1.82 2.46-2.94 4.31-2.49 1.85.46 2.92 2.3 2.39 4.13z"/><path d="m493.97 160.9-11.57 11.05c-.64.66-1.51.99-2.47.99s-1.82-.33-2.47-.99l-11.61-11.05c-1.38-1.31-1.38-3.45 0-4.76s3.6-1.31 4.98 0l5.55 5.3v-134.61c0-1.86 1.58-3.37 3.53-3.37s3.53 1.51 3.53 3.37v134.61l5.55-5.31c1.38-1.31 3.6-1.31 4.98 0 1.38 1.32 1.38 3.45 0 4.77z"/><path d="m580.66 191.81-15.55 3.79c-.88.25-1.8.1-2.63-.38s-1.41-1.2-1.64-2.09l-4.53-15.38c-.54-1.82.53-3.68 2.38-4.12 1.85-.45 3.78.67 4.31 2.49l2.16 7.37 67.3-116.57c.93-1.61 3.05-2.13 4.74-1.16s2.3 3.07 1.37 4.68l-67.3 116.57 7.47-1.82c1.85-.45 3.78.67 4.31 2.49.53 1.83-.53 3.68-2.39 4.13z"/><path d="m640.27 261.93-15.36-4.49c-.89-.22-1.61-.81-2.09-1.64s-.62-1.74-.38-2.63l3.76-15.58c.45-1.85 2.3-2.92 4.12-2.38s2.94 2.46 2.49 4.31l-1.81 7.46 116.57-67.3c1.61-.93 3.71-.32 4.68 1.37s.46 3.81-1.16 4.74l-116.57 67.3 7.38 2.15c1.82.54 2.94 2.46 2.49 4.31-.46 1.85-2.3 2.92-4.13 2.39z"/><path d="m656.84 352.47-11.05-11.57c-.66-.64-.99-1.51-.99-2.47s.33-1.82.99-2.47l11.05-11.61c1.31-1.38 3.45-1.38 4.76 0s1.31 3.6 0 4.98l-5.3 5.55h134.61c1.86 0 3.37 1.58 3.37 3.53s-1.51 3.53-3.37 3.53h-134.61l5.31 5.55c1.31 1.38 1.31 3.6 0 4.98-1.32 1.38-3.45 1.38-4.77 0z"/></g><path d="m480 297-38.06 11.67v43.95l38.06 11.67 38.06-11.67v-43.95l-38.06-11.68zm30.86 12.54-30.86 8.87-30.86-8.87 30.86-8.66zm-65.56 2.32 33.02 9.93v38.16l-33.02-9.26zm36.38 48.09v-38.16l33.02-9.92v38.83l-33.02 9.26z" fill="#242d3c"/></svg>