<svg height="540" viewBox="0 0 960 540" width="960" xmlns="http://www.w3.org/2000/svg"><g fill="#efcc00"><path d="m400 211.86c15.54 0 28.14 12.6 28.14 28.14s-12.6 28.14-28.14 28.14-28.14-12.6-28.14-28.14 12.6-28.14 28.14-28.14zm3.31-6.62v-9.93c0-1.83-1.48-3.31-3.31-3.31s-3.31 1.48-3.31 3.31v9.93c0 1.83 1.48 3.31 3.31 3.31s3.31-1.48 3.31-3.31zm0 79.45v-9.93c0-1.83-1.48-3.31-3.31-3.31s-3.31 1.48-3.31 3.31v9.93c0 1.83 1.48 3.31 3.31 3.31s3.31-1.48 3.31-3.31zm44.69-44.69c0-1.83-1.48-3.31-3.31-3.31h-9.93c-1.83 0-3.31 1.48-3.31 3.31s1.48 3.31 3.31 3.31h9.93c1.83 0 3.31-1.48 3.31-3.31zm-79.45 0c0-1.83-1.48-3.31-3.31-3.31h-9.93c-1.83 0-3.31 1.48-3.31 3.31s1.48 3.31 3.31 3.31h9.93c1.83 0 3.31-1.48 3.31-3.31zm58.37-22.24 7.02-7.02c1.29-1.29 1.29-3.39 0-4.68s-3.39-1.29-4.68 0l-7.02 7.02c-1.29 1.29-1.29 3.39 0 4.68.65.65 1.49.97 2.34.97s1.69-.32 2.34-.97zm-56.18 56.18 7.02-7.02c1.29-1.29 1.29-3.39 0-4.68s-3.39-1.29-4.68 0l-7.02 7.02c-1.29 1.29-1.29 3.39 0 4.68.65.65 1.49.97 2.34.97s1.69-.32 2.34-.97zm63.2 0c1.29-1.29 1.29-3.39 0-4.68l-7.02-7.02c-1.29-1.29-3.39-1.29-4.68 0s-1.29 3.39 0 4.68l7.02 7.02c.65.65 1.49.97 2.34.97s1.69-.32 2.34-.97zm-56.18-56.18c1.29-1.29 1.29-3.39 0-4.68l-7.02-7.02c-1.29-1.29-3.39-1.29-4.68 0s-1.29 3.39 0 4.68l7.02 7.02c.65.65 1.49.97 2.34.97s1.69-.32 2.34-.97z"/><path d="m359.58 335.42-14.64 3.6c-.83.24-1.7.1-2.48-.36s-1.33-1.14-1.55-1.99l-4.26-14.63c-.51-1.74.5-3.5 2.24-3.92s3.55.63 4.06 2.37l2.03 7.01 12.06-21.09c.88-1.53 2.87-2.03 4.46-1.1s2.16 2.92 1.29 4.45l-12.06 21.09 7.03-1.73c1.74-.42 3.55.63 4.06 2.37.5 1.74-.5 3.5-2.25 3.93z"/><path d="m316.96 302.93-14.47-4.25c-.84-.21-1.52-.77-1.97-1.56s-.58-1.66-.34-2.52l3.62-14.95c.43-1.77 2.18-2.8 3.9-2.3 1.72.51 2.76 2.35 2.33 4.12l-1.74 7.15 20.99-12.36c1.53-.9 3.5-.32 4.41 1.29s.41 3.65-1.11 4.55l-20.99 12.36 6.95 2.04c1.72.51 2.76 2.35 2.33 4.12-.44 1.78-2.18 2.8-3.91 2.3z"/><path d="m296.29 252.99-10.41-11.02c-.62-.61-.93-1.44-.92-2.36s.33-1.75.96-2.38l10.61-11.25c1.26-1.33 3.29-1.35 4.53-.04s1.22 3.45-.04 4.78l-5.09 5.38 24.35-.21c1.77-.02 3.19 1.49 3.18 3.36s-1.47 3.4-3.24 3.41l-24.35.21 5 5.29c1.24 1.31 1.22 3.45-.04 4.78-1.27 1.33-3.29 1.35-4.54.04z"/><path d="m303.36 198.87-3.51-14.9c-.24-.85-.08-1.73.38-2.53s1.16-1.36 2.02-1.59l14.81-4.48c1.76-.53 3.53.48 3.94 2.25s-.67 3.63-2.43 4.16l-7.1 2.13 21.2 12.12c1.54.88 2.02 2.91 1.07 4.54s-2.97 2.23-4.51 1.35l-21.2-12.12 1.69 7.16c.41 1.77-.67 3.63-2.43 4.16-1.77.53-3.53-.48-3.95-2.26z"/><path d="m336.54 155.09 4.42-14.81c.22-.86.79-1.56 1.6-2.02s1.69-.61 2.55-.37l15.07 3.56c1.79.42 2.81 2.2 2.29 3.96-.53 1.76-2.4 2.84-4.19 2.42l-7.21-1.72 12.3 21.31c.89 1.55.29 3.57-1.34 4.52s-3.69.45-4.58-1.09l-12.3-21.31-2.12 7.11c-.53 1.76-2.4 2.84-4.19 2.42-1.79-.43-2.81-2.2-2.29-3.97z"/><path d="m387.17 133.56 11.23-10.72c.62-.64 1.46-.96 2.4-.96s1.76.32 2.39.96l11.27 10.73c1.34 1.27 1.34 3.35 0 4.62s-3.5 1.27-4.83 0l-5.39-5.14v24.85c0 1.81-1.53 3.27-3.43 3.27s-3.42-1.47-3.42-3.27v-24.85s-5.39 5.15-5.39 5.15c-1.34 1.27-3.5 1.27-4.83 0-1.34-1.28-1.34-3.35 0-4.63z"/><path d="m441.78 140.29 15.08-3.71c.86-.25 1.75-.1 2.56.37s1.37 1.17 1.59 2.05l4.4 15.07c.52 1.79-.52 3.6-2.31 4.04s-3.66-.65-4.18-2.44l-2.09-7.22-12.43 21.73c-.9 1.58-2.96 2.09-4.6 1.13s-2.23-3.01-1.33-4.59l12.43-21.73-7.24 1.79c-1.79.44-3.66-.65-4.18-2.44-.52-1.8.52-3.6 2.32-4.05z"/><path d="m485.71 173.76 14.92 4.37c.87.22 1.57.79 2.03 1.61s.6 1.72.35 2.6l-3.73 15.41c-.44 1.83-2.25 2.89-4.02 2.37s-2.85-2.42-2.4-4.25l1.8-7.37-21.63 12.74c-1.57.93-3.61.33-4.55-1.33s-.43-3.76 1.15-4.69l21.63-12.74-7.17-2.1c-1.77-.52-2.85-2.42-2.4-4.25s2.25-2.89 4.03-2.37z"/><path d="m507.02 225.23 10.73 11.36c.64.63.96 1.49.95 2.44s-.34 1.8-.99 2.45l-10.93 11.59c-1.3 1.37-3.39 1.39-4.67.04-1.27-1.35-1.25-3.56.04-4.93l5.24-5.54-25.1.22c-1.83.02-3.29-1.53-3.27-3.46s1.51-3.5 3.34-3.52l25.1-.22-5.16-5.45c-1.27-1.35-1.25-3.56.04-4.93 1.31-1.37 3.39-1.39 4.68-.04z"/><path d="m499.74 281.01 3.61 15.36c.24.87.09 1.78-.39 2.61s-1.2 1.41-2.09 1.64l-15.26 4.62c-1.81.55-3.63-.49-4.06-2.32s.69-3.74 2.5-4.29l7.31-2.2-21.85-12.49c-1.59-.91-2.08-3-1.1-4.68s3.06-2.3 4.65-1.39l21.85 12.49-1.74-7.38c-.43-1.83.69-3.74 2.5-4.29 1.82-.54 3.63.49 4.07 2.33z"/><path d="m465.55 326.13-4.55 15.26c-.23.89-.82 1.61-1.65 2.08s-1.74.63-2.63.38l-15.53-3.67c-1.84-.44-2.9-2.27-2.36-4.08s2.47-2.93 4.31-2.49l7.43 1.77-12.68-21.96c-.92-1.6-.3-3.68 1.38-4.65s3.8-.47 4.72 1.13l12.68 21.96 2.18-7.33c.54-1.81 2.47-2.93 4.31-2.49 1.85.44 2.9 2.27 2.36 4.09z"/><path d="m413.37 348.33-11.57 11.05c-.64.66-1.51.99-2.47.99s-1.82-.33-2.47-.99l-11.61-11.05c-1.38-1.31-1.38-3.45 0-4.76s3.6-1.31 4.98 0l5.55 5.3v-25.61c0-1.86 1.58-3.37 3.53-3.37s3.53 1.51 3.53 3.37v25.61l5.55-5.31c1.38-1.31 3.6-1.31 4.98 0 1.38 1.32 1.38 3.45 0 4.77z"/></g><path d="m518.78 329.95-38.06 11.67v43.95l38.06 11.67 38.06-11.67v-43.95l-38.06-11.68zm30.86 12.54-30.86 8.87-30.86-8.87 30.86-8.66zm-65.56 2.32 33.02 9.93v38.16l-33.02-9.26zm36.38 48.09v-38.16l33.02-9.92v38.83l-33.02 9.26z" fill="#242d3c"/><circle cx="400" cy="240" fill="#efcc00" opacity=".2" r="164.56"/></svg>