<svg height="540" viewBox="0 0 960 540" width="960" xmlns="http://www.w3.org/2000/svg"><path d="m313.18 250.12c15.54 0 28.14 12.6 28.14 28.14s-12.6 28.14-28.14 28.14-28.14-12.6-28.14-28.14 12.6-28.14 28.14-28.14zm3.31-6.62v-9.93c0-1.83-1.48-3.31-3.31-3.31s-3.31 1.48-3.31 3.31v9.93c0 1.83 1.48 3.31 3.31 3.31s3.31-1.48 3.31-3.31zm0 79.45v-9.93c0-1.83-1.48-3.31-3.31-3.31s-3.31 1.48-3.31 3.31v9.93c0 1.83 1.48 3.31 3.31 3.31s3.31-1.48 3.31-3.31zm44.69-44.69c0-1.83-1.48-3.31-3.31-3.31h-9.93c-1.83 0-3.31 1.48-3.31 3.31s1.48 3.31 3.31 3.31h9.93c1.83 0 3.31-1.48 3.31-3.31zm-79.45 0c0-1.83-1.48-3.31-3.31-3.31h-9.93c-1.83 0-3.31 1.48-3.31 3.31s1.48 3.31 3.31 3.31h9.93c1.83 0 3.31-1.48 3.31-3.31zm58.37-22.24 7.02-7.02c1.29-1.29 1.29-3.39 0-4.68s-3.39-1.29-4.68 0l-7.02 7.02c-1.29 1.29-1.29 3.39 0 4.68.65.65 1.49.97 2.34.97s1.69-.32 2.34-.97zm-56.18 56.18 7.02-7.02c1.29-1.29 1.29-3.39 0-4.68s-3.39-1.29-4.68 0l-7.02 7.02c-1.29 1.29-1.29 3.39 0 4.68.65.65 1.49.97 2.34.97s1.69-.32 2.34-.97zm63.2 0c1.29-1.29 1.29-3.39 0-4.68l-7.02-7.02c-1.29-1.29-3.39-1.29-4.68 0s-1.29 3.39 0 4.68l7.02 7.02c.65.65 1.49.97 2.34.97s1.69-.32 2.34-.97zm-56.18-56.18c1.29-1.29 1.29-3.39 0-4.68l-7.02-7.02c-1.29-1.29-3.39-1.29-4.68 0s-1.29 3.39 0 4.68l7.02 7.02c.65.65 1.49.97 2.34.97s1.69-.32 2.34-.97z" fill="#efcc00"/><path d="m566 270-38.06 11.67v43.95l38.06 11.67 38.06-11.67v-43.95l-38.06-11.68zm30.86 12.54-30.86 8.87-30.86-8.87 30.86-8.66zm-65.56 2.32 33.02 9.93v38.16l-33.02-9.26zm36.38 48.09v-38.16l33.02-9.92v38.83l-33.02 9.26z" fill="#242d3c"/><g fill="#efcc00"><path d="m430.2 144.29 11.05 11.57c.66.64.99 1.51.99 2.47s-.33 1.82-.99 2.47l-11.05 11.61c-1.31 1.38-3.45 1.38-4.76 0s-1.31-3.6 0-4.98l5.3-5.55h-54.61c-1.86 0-3.37-1.58-3.37-3.53s1.51-3.53 3.37-3.53h54.61l-5.31-5.55c-1.31-1.38-1.31-3.6 0-4.98 1.32-1.38 3.45-1.38 4.77 0z"/><path d="m430.2 204.29 11.05 11.57c.66.64.99 1.51.99 2.47s-.33 1.82-.99 2.47l-11.05 11.61c-1.31 1.38-3.45 1.38-4.76 0s-1.31-3.6 0-4.98l5.3-5.55h-54.61c-1.86 0-3.37-1.58-3.37-3.53s1.51-3.53 3.37-3.53h54.61l-5.31-5.55c-1.31-1.38-1.31-3.6 0-4.98 1.32-1.38 3.45-1.38 4.77 0z"/><path d="m430.2 264.29 11.05 11.57c.66.64.99 1.51.99 2.47s-.33 1.82-.99 2.47l-11.05 11.61c-1.31 1.38-3.45 1.38-4.76 0s-1.31-3.6 0-4.98l5.3-5.55h-54.61c-1.86 0-3.37-1.58-3.37-3.53s1.51-3.53 3.37-3.53h54.61l-5.31-5.55c-1.31-1.38-1.31-3.6 0-4.98 1.32-1.38 3.45-1.38 4.77 0z"/><path d="m430.2 324.29 11.05 11.57c.66.64.99 1.51.99 2.47s-.33 1.82-.99 2.47l-11.05 11.61c-1.31 1.38-3.45 1.38-4.76 0s-1.31-3.6 0-4.98l5.3-5.55h-54.61c-1.86 0-3.37-1.58-3.37-3.53s1.51-3.53 3.37-3.53h54.61l-5.31-5.55c-1.31-1.38-1.31-3.6 0-4.98 1.32-1.38 3.45-1.38 4.77 0z"/><path d="m430.2 384.29 11.05 11.57c.66.64.99 1.51.99 2.47s-.33 1.82-.99 2.47l-11.05 11.61c-1.31 1.38-3.45 1.38-4.76 0s-1.31-3.6 0-4.98l5.3-5.55h-54.61c-1.86 0-3.37-1.58-3.37-3.53s1.51-3.53 3.37-3.53h54.61l-5.31-5.55c-1.31-1.38-1.31-3.6 0-4.98 1.32-1.38 3.45-1.38 4.77 0z"/><path d="m369.87 120.06h6.62v327.47h-6.62z"/><path d="m577.55 505.05-204.37-57.97v-325.27l204.37-57.97z" opacity=".2"/></g></svg>