<svg height="540" viewBox="0 0 960 540" width="960" xmlns="http://www.w3.org/2000/svg"><path d="m307.09 97.85c15.54 0 28.14 12.6 28.14 28.14s-12.6 28.14-28.14 28.14-28.14-12.6-28.14-28.14 12.6-28.14 28.14-28.14zm3.31-6.62v-9.93c0-1.83-1.48-3.31-3.31-3.31s-3.31 1.48-3.31 3.31v9.93c0 1.83 1.48 3.31 3.31 3.31s3.31-1.48 3.31-3.31zm0 79.45v-9.93c0-1.83-1.48-3.31-3.31-3.31s-3.31 1.48-3.31 3.31v9.93c0 1.83 1.48 3.31 3.31 3.31s3.31-1.48 3.31-3.31zm44.69-44.69c0-1.83-1.48-3.31-3.31-3.31h-9.93c-1.83 0-3.31 1.48-3.31 3.31s1.48 3.31 3.31 3.31h9.93c1.83 0 3.31-1.48 3.31-3.31zm-79.45 0c0-1.83-1.48-3.31-3.31-3.31h-9.93c-1.83 0-3.31 1.48-3.31 3.31s1.48 3.31 3.31 3.31h9.93c1.83 0 3.31-1.48 3.31-3.31zm58.37-22.24 7.02-7.02c1.29-1.29 1.29-3.39 0-4.68s-3.39-1.29-4.68 0l-7.02 7.02c-1.29 1.29-1.29 3.39 0 4.68.65.65 1.49.97 2.34.97s1.69-.32 2.34-.97zm-56.18 56.18 7.02-7.02c1.29-1.29 1.29-3.39 0-4.68s-3.39-1.29-4.68 0l-7.02 7.02c-1.29 1.29-1.29 3.39 0 4.68.65.65 1.49.97 2.34.97s1.69-.32 2.34-.97zm63.2 0c1.29-1.29 1.29-3.39 0-4.68l-7.02-7.02c-1.29-1.29-3.39-1.29-4.68 0s-1.29 3.39 0 4.68l7.02 7.02c.65.65 1.49.97 2.34.97s1.69-.32 2.34-.97zm-56.18-56.18c1.29-1.29 1.29-3.39 0-4.68l-7.02-7.02c-1.29-1.29-3.39-1.29-4.68 0s-1.29 3.39 0 4.68l7.02 7.02c.65.65 1.49.97 2.34.97s1.69-.32 2.34-.97z" fill="#efcc00"/><path d="m578 360-38.06 11.67v43.95l38.06 11.67 38.06-11.67v-43.95l-38.06-11.68zm30.86 12.54-30.86 8.87-30.86-8.87 30.86-8.66zm-65.56 2.32 33.02 9.93v38.16l-33.02-9.26zm36.38 48.09v-38.16l33.02-9.92v38.83l-33.02 9.26z" fill="#242d3c"/><g fill="#efcc00"><path d="m437 312.74-3.14 15.69c-.14.91-.67 1.68-1.45 2.23s-1.68.77-2.59.6l-15.85-2.39c-1.88-.28-3.11-2.04-2.73-3.9s2.2-3.14 4.08-2.86l7.59 1.16-88.68-126.65c-1.07-1.53-.64-3.67.95-4.78s3.75-.79 4.82.74l88.68 126.65 1.5-7.54c.38-1.86 2.2-3.14 4.08-2.86 1.89.29 3.11 2.04 2.74 3.91z"/><path d="m550.65 346.26-.37 16c.02.92-.37 1.77-1.04 2.45s-1.52 1.05-2.45 1.04l-16.03.4c-1.9.05-3.41-1.46-3.37-3.37.05-1.9 1.62-3.48 3.52-3.52l7.67-.18-180.04-180.04c-1.32-1.32-1.27-3.5.11-4.88s3.56-1.43 4.88-.11l180.04 180.04.17-7.68c.05-1.9 1.62-3.48 3.52-3.52 1.91-.04 3.41 1.46 3.37 3.37z"/><path d="m513.37 229.46 2.42 15.82c.18.9-.05 1.81-.6 2.59s-1.31 1.3-2.23 1.45l-15.72 3.17c-1.86.38-3.62-.85-3.9-2.73s.99-3.7 2.86-4.08l7.53-1.51-126.65-88.68c-1.53-1.07-1.86-3.22-.74-4.82s3.26-2.02 4.78-.95l126.65 88.68-1.17-7.6c-.28-1.88.99-3.7 2.86-4.08 1.87-.37 3.62.85 3.91 2.74z"/><path d="m373.03 139.03-49.5 49.5 190.02 310.23 76.58-57.77 35.36-35.36 57.77-76.58z" opacity=".2"/></g></svg>