<svg height="512" viewBox="0 0 512 512" width="512" xmlns="http://www.w3.org/2000/svg"><path d="m0 0h512v512h-512z" stroke="#10ffe8" stroke-miterlimit="10" stroke-width="8"/><path d="m264.64 110.23c.36-.27.74-.53 1.12-.78l2.01.51c.69.17 1.39-.24 1.58-.93.12-.46-.03-.91-.34-1.23.46-.17.93-.32 1.4-.46.94.43 1.79.86 2.52 1.28.1.06.21.09.32.09.22 0 .44-.12.57-.33.18-.31.07-.71-.24-.89-.33-.19-.7-.38-1.08-.58.86-.13 1.73-.21 2.63-.21h2.41l5.84 2.5c.16.07.33.1.49.11h-8.73c-2.06 0-4.03.43-5.82 1.19-1.55-.11-3.11-.2-4.67-.26zm-40.24 3.36c1.23-.26 2.46-.51 3.7-.75-1.62-.33-4.13-.82-7.31-1.37-2.89.48-5.93 1.21-9.14 2.24l-1 .32.1 1.04s.09.77.43 1.93c.81-.25 1.63-.49 2.45-.73-.04-.15-.07-.3-.1-.43 3.89-1.18 7.51-1.9 10.87-2.27zm7.32-1.38c1.86-.31 3.73-.59 5.62-.83-2.06-.35-4.25-.57-6.59-.63.66.16 1.08.8.97 1.46zm49.83 57.69.41-1.84-1.86.27c-1.72.25-3.13 1.1-4.17 2.52 1.81.4 3.65.79 5.46 1.23-.03-1.23.16-2.16.17-2.17zm-6.38 14.4 1.87.41-.31-1.89c-.27-1.68-.59-6.07.55-9.03-.86-.18-1.73-.31-2.6-.47-.91 2.71-.88 5.91-.73 7.93-2.31-.81-4-2.12-5.03-3.9-.94-1.63-1.23-3.45-1.25-5.03-.86-.09-1.74-.13-2.61-.2 0 1.99.34 4.35 1.59 6.52 1.66 2.88 4.53 4.78 8.51 5.66zm-17.22-59.35 2.32 2.95v-3.75c0-4.52 2.03-8.56 5.22-11.28-1.18-.06-2.36-.1-3.55-.13-.62.72-1.18 1.49-1.68 2.3.04.04.08.08.12.12.25.26.24.67-.02.92-.13.12-.29.18-.45.18-.1 0-.2-.03-.3-.08-.81 1.56-1.4 3.24-1.7 5.03-2.39-2.21-6.86-5.64-13.4-7.96-2.32.19-4.63.43-6.92.73 13.37 2.42 19.95 10.49 20.35 10.99zm24.43 50.85c-.2-.3-.36-.62-.49-.94-.96-.25-1.93-.45-2.9-.67.2 1.01.57 2.05 1.19 3.01 1.14 1.76 2.89 2.89 5.2 3.37l1.26.26.27-1.26c.03-.12.33-1.43 1.16-2.88-.84-.28-1.68-.55-2.53-.8-.33.62-.59 1.23-.79 1.8-1.03-.4-1.81-1.03-2.37-1.89zm53.13-3.08c1.68 0 3.31-.01 4.86-.02-2.68-.69-4.1-.47-4.86.02zm-66.43-7.32-2.71 1.29c-7.14 3.42-12.26 2.31-15.27.83 3.17-.17 5.56-.95 7.14-2.33 1.66-1.45 1.78-3.04 1.78-3.22l.07-1.59-1.58.25c-10.74 1.7-16.45-1.47-18.81-3.39 18.23-6.87 20.23-19.91 20.3-20.48l.22-1.58-1.59.11c-31.91 2.15-41.39-9.99-44.18-16.52-.6.17-1.2.35-1.79.53.08.28-.02.58-.28.74 1.95 4.36 6.47 10.52 16.46 14.41.89-.13 1.8-.26 2.74-.4.35-.05.69.19.74.55s-.19.69-.55.74c-.11.02-.21.03-.32.05.15.05.3.09.45.14.98-.39 2-.77 3.09-1.17.34-.12.71.05.83.39s-.05.71-.39.83c-.51.18-.97.36-1.44.53 6.01 1.56 13.54 2.37 23.02 1.88-.92 2.94-3.85 9.33-12.71 14.26.07 0 .15.01.22.02.36.03.62.35.59.7-.03.34-.31.59-.65.59-.42-.03-1.21-.11-2.28-.23-1.6.77-3.36 1.49-5.31 2.13l-1.7.56 1.07 1.44c.24.32 5.63 7.37 19.81 6.09-1.31.9-3.91 1.72-9.01 1.29l-3.23-.28 2.14 2.43s1.26 1.37 3.55 2.58c2.7-.22 5.42-.36 8.17-.36 3.42 0 6.81.17 10.15.51.14-.88.31-1.45.32-1.46l.9-2.86zm36.83-57.06c.03-.11.16-.57.3-1.28-.34-.08-.69-.13-1.04-.19-.03.24-.04.48-.08.71-.05.32-.33.54-.64.54-.04 0-.08 0-.11 0-.35-.06-.59-.4-.53-.75.03-.2.04-.41.07-.62-.22-.01-.44-.04-.67-.04.11.58-.15 1.17-.7 1.43-.61.28-1.34.06-1.68-.52-.02-.04-.22-.37-.56-.91h-2.21c.16.26.33.51.49.77.19.31.09.71-.21.89-.11.07-.22.1-.34.1-.22 0-.43-.11-.55-.31-.15-.25-.32-.49-.47-.74.22.43.21.95-.1 1.37-.43.58-1.24.7-1.82.28-.08-.06-1.27-.92-3.35-2.35h-2.91c.39.28.79.57 1.15.84.29.22.34.63.12.91-.13.17-.32.26-.52.26-.14 0-.28-.04-.39-.13-.8-.61-1.7-1.24-2.64-1.88h-2.35c.15.08.27.13.29.14.62.32.88 1.08.58 1.71-.22.47-.7.75-1.19.75h19.35c5.81 0 10.54 4.73 10.54 10.54v.42c.06.02.12.04.17.07l1.5.57c.21.08.43.16.64.24h3.67c-.08.08-.15.14-.23.22-.25.27-.47.58-.68.91.41.17.81.34 1.22.51.13-.19.26-.36.39-.51.54-.61 1.1-.94 1.56-1.13h7.59c-.54.33-1.08.73-1.59 1.21-.89.84-1.6 1.87-2.17 3.04.39.19.78.37 1.17.56.5-1.02 1.11-1.92 1.88-2.65 1.33-1.27 2.87-1.88 4.16-2.17h8.1v8.33c0 1.33-.51 2.52-1.32 3.45.75.46 1.5.92 2.24 1.39 1.05-1.34 1.68-3.01 1.68-4.84v-8.33h13.39c1.52 0 2.93.6 3.98 1.7 1.05 1.09 1.6 2.53 1.54 4.05l-.27 6.81c-.02.55-.08 1.09-.17 1.62l-15.23.07c-.25 0-.48-.08-.64-.22-.08-.07-.22-.22-.22-.42l-.04-8.2c0-.35.39-.65.86-.65l10.73-.05c.25 0 .48.08.65.22.08.07.22.22.22.42l.02 5.33c0 .35-.39.65-.86.65l-6.6.03c-.25 0-.48-.08-.65-.22-.08-.07-.22-.21-.22-.42v-2.6c-.01-.35.38-.65.84-.65h3.1c.47-.01.86.28.86.63s-.39.65-.85.65h-.24c-.36 0-.65.29-.65.65s.29.65.65.65h.24c1.19 0 2.16-.88 2.15-1.96 0-1.07-.92-1.91-2.17-1.94h-3.1c-1.19.02-2.16.9-2.15 1.97v2.6c.01.53.26 1.05.69 1.41.4.34.93.53 1.48.53.01 0 6.61-.03 6.61-.03 1.19 0 2.16-.88 2.15-1.96l-.02-5.33c0-.53-.25-1.04-.68-1.41-.4-.34-.93-.53-1.48-.53-.01 0-10.74.05-10.74.05-1.19 0-2.16.88-2.15 1.96l.04 8.2c0 .53.25 1.04.68 1.41.4.34.93.53 1.48.53.01 0 14.96-.07 14.96-.07-.84 3.26-2.82 6.02-5.49 7.87.7.56 1.41 1.12 2.1 1.69 3.75-2.86 6.22-7.3 6.42-12.39l.27-6.81c.09-2.23-.72-4.34-2.26-5.95-1.55-1.61-3.63-2.49-5.86-2.49h-40.83c-.47-4.73-3.46-8.71-7.59-10.62-.14.7-.25 1.11-.26 1.14l-2.5-.71zm-9.31-1.39c.12.09.2.2.28.31-.12-.19-.24-.38-.36-.56h-.26l.34.26zm55.24 39.59c.73-.18 1.45-.4 2.13-.69.26.2.52.41.77.61.03.02.06.05.08.07.47.37.94.75 1.41 1.13-1.08.57-2.24 1-3.44 1.32l-2.53 3.06-.46-.35c-.28-.22-.69-.17-.91.12-.22.28-.17.69.12.91l.42.32-4.63 5.59v1.74l2.98 3.71h3.67c2.37 0 4.29 1.92 4.29 4.29s-1.92 4.28-4.27 4.29c-1.79 0-4.23.02-7.09.03-5.23-2.08-8.61-2.26-10.2-.54-.16.17-.3.37-.42.57-6.58.02-13.79.03-20.25.03-2.66-1.08-5.99-1.09-9.97-.02-3.98-.02-7.03-.05-8.49-.09-.1 0-.2 0-.29 0-2.18 0-3.78.81-4.94 1.88-.9-.31-1.81-.62-2.72-.9 1.74-2.05 4.36-3.7 8.04-3.57 6.52.21 44.77.06 56.34.01.93 0 1.68-.76 1.68-1.69s-.76-1.69-1.69-1.69h-54.22c-5.15 0-9.33-4.19-9.33-9.33v-1.08c0-5.15 4.19-9.33 9.33-9.33h30.77v-4.35c0-4.34 3.53-7.86 7.86-7.86.52 0 1.01-.1 1.48-.24.9.54 1.8 1.08 2.69 1.63-1.21.76-2.64 1.21-4.17 1.21-2.9 0-5.26 2.36-5.26 5.26v4.35h6.91l14.33-.4zm-16.77 17.38 9.03-.25-4.34-5.41zm-11.26-14.38 6.17 7.39 6.13-7.39zm-14.27 0 5.93 7.39 6.68-7.39zm-14.5.39 5.91 7 6.42-7.39h-10.15c-.76 0-1.49.16-2.17.39zm7.5 14.15-6.32-7.88-4.5 5.02c1.22 1.72 3.22 2.86 5.49 2.86zm14.82 0-6.63-7.88-6.84 7.88zm1.36 0s12.83 0 12.84-.02l-6.31-7.87-6.53 7.88zm30.23-14.56c-.13 0-.26.02-.39.02h-8.32l4.28 5.33 4.44-5.35zm-24.63-14.58c.02.35.31.61.65.61.4-.02.67-.33.65-.69-.15-2.47.02-4.61.48-6.45-.4-.19-.8-.39-1.2-.58-.54 2.03-.74 4.39-.58 7.1zm-6.81.05c.05.32.32.56.64.56h.09c.36-.05.6-.38.55-.74-.65-4.57-.42-7.62.16-9.66-.4-.17-.8-.34-1.2-.5-.76 2.57-.86 6.02-.24 10.35zm-6.39-.25c.05.32.33.54.64.54h.11c.35-.06.59-.4.53-.75-.88-5.22-.53-9.18.98-11.63-.41-.16-.82-.32-1.23-.47-1.59 2.73-1.95 6.85-1.03 12.31zm-86.37-15.15c-.34.1-.54.47-.44.81s.46.54.81.44c8.33-2.49 18.89 2.01 25.52 5.64-4.42-1.21-10.54-1.98-17.3-.15-.35.09-.55.45-.46.8s.46.55.8.46c12.61-3.41 23.24 2.77 23.35 2.83.1.06.22.09.33.09.21 0 .42-.1.54-.29.19-.29.12-.68-.16-.88-.78-.57-19.3-13.85-32.99-9.74zm62.4 27.66c.28-.23.31-.64.08-.92s-.64-.31-.92-.08c-4.06 3.41-6.06 7.07-5.94 10.89.18 6.13 5.74 10.33 5.97 10.5.12.09.25.13.39.13.2 0 .39-.09.52-.26.21-.29.16-.7-.13-.91-.05-.04-5.29-4.01-5.45-9.51-.1-3.39 1.75-6.71 5.48-9.84zm-3.38-1.16-11.88 1.88 4.34 5.68-6.5 9.8c-.13.19-.33.29-.54.29-.12 0-.25-.04-.36-.11-.3-.2-.38-.6-.18-.9l5.99-9.03-5.1-6.67 9.54-1.51-8.98-3.79 14.57-3.2c-2.11-.3-4.35-.75-6.72-1.38-.35-.09-.55-.45-.46-.8s.45-.56.79-.46c3.7.97 7.05 1.53 10.06 1.7l.51-3.65c-10.19-2.19-20.81-8.72-21.44-9.11l-4.02-2.5 41.02.82c-5.17-2.24-17.57-6.68-28.37-3.47-.34.1-.71-.1-.81-.44s.09-.71.44-.81c14.51-4.3 31.12 4.35 31.82 4.72.03.02.05.04.15.12.04.04.07.09.14.21.02.05.03.1.06.22 0 .29.12 7.16-5.52 11.62-3.05 2.41-7.13 3.62-12.21 3.62-.34 0-.72-.03-1.07-.04l-14.66 3.22 9.4 3.97zm14.24-14.36c.63-.14 1.25-.32 1.82-.57 2.24-.98 3.73-2.76 4.54-5.4l-4.69-.09c-.3 1.52-.89 4.09-1.67 6.07zm-4.26.31c-.59-1.41-1.21-3.54-1.84-6.54l-18.66-.37c5.08 2.66 13.57 6.53 20.51 6.91zm-4.12 5.59c4.98.07 8.95-1.03 11.85-3.32 1.3-1.02 2.26-2.2 2.98-3.39-.98 1.11-2.17 1.99-3.59 2.62-1.79.78-3.83 1.11-5.99 1.11-1.54 0-3.14-.17-4.77-.46zm-11.61 34.72c.23-.31.48-.57.75-.78-.01.76.04 1.66.23 2.59.97.22 1.94.42 2.9.67-.38-.94-.5-1.94-.52-2.79-1.81-.44-3.64-.83-5.49-1.17-.52.72-.91 1.55-1.21 2.43.87.15 1.74.29 2.6.47.2-.52.44-1.01.74-1.41zm-16.07-59.65c1.19.03 2.37.08 3.55.13 1.14-.97 2.41-1.78 3.81-2.37-1.55-.11-3.11-.2-4.67-.26-.98.74-1.88 1.58-2.68 2.5zm78.09 23.39c.77-.48 1.45-1.1 2.01-1.81-.75-.47-1.49-.94-2.24-1.39-.65.74-1.49 1.28-2.46 1.57.9.54 1.8 1.08 2.69 1.63zm-13.93-7.7c.22-.9.52-1.72.88-2.47-.39-.19-.78-.37-1.17-.56-.37.75-.67 1.57-.91 2.45.4.19.8.38 1.2.58zm-7.14-3.27c.29-1.03.67-1.8 1.06-2.38-.4-.17-.81-.34-1.22-.51-.44.68-.78 1.48-1.05 2.38.4.17.8.33 1.2.5zm-5.56-4.39c-.49.48-.89 1.05-1.25 1.67.41.15.82.31 1.23.47.27-.44.57-.85.92-1.19.23-.23.47-.4.72-.57h1.02c-.21-.08-.43-.16-.64-.24-.5-.19-1-.38-1.5-.57-.06-.02-.12-.04-.17-.07v.22c-.11.1-.22.19-.33.29zm129.98 93.85c-.25.49-.77.78-1.32.72-.09 0-9.07-.96-16.57 5.88-5.83 5.32-9.27 13.79-10.28 25.22 1.07 7.43 1.63 15.03 1.63 22.75s-.59 15.66-1.7 23.25c2.2-.07 4.54.06 7.03.45.53.08.96.48 1.07 1.01.05.22 3.76 18.63-11.57 32.19 1.16 1.74 2.1 3.7 2.84 5.89 2.04.73 4.08 1.78 5.98 3.29 6.21 4.92 9.29 13.32 9.15 24.95 0 .55-.36 1.04-.88 1.22-.52.17-1.1 0-1.44-.43-.05-.07-5.74-7.1-15.87-7.56-8.71-.4-18.07 3.96-27.87 12.98-11.07 14.3-24.52 26.68-39.76 36.52.77.93 1.52 1.93 2.26 3.01.3.45.3 1.03 0 1.48-.13.19-11.08 15.44-31.45 13.46-.49 2.03-1.28 4.06-2.37 6.09.85 1.99 1.48 4.2 1.67 6.62.62 7.9-3.43 15.87-12.04 23.7-.41.37-1.01.44-1.49.18s-.75-.8-.67-1.35c.01-.09 1.29-9.03-5.27-16.78-5.35-6.3-14.23-10.11-26.45-11.37-3.4.22-6.82.34-10.28.34-20 0-39.15-3.72-56.8-10.49-.33 1.43-.74 2.9-1.27 4.41-.18.51-.65.85-1.19.87-.23 0-19 .26-29.51-17.31-1.92.81-4.03 1.38-6.31 1.71-1.1 1.87-2.5 3.68-4.34 5.27-5.98 5.19-14.8 6.67-26.21 4.39-.54-.11-.96-.55-1.03-1.09-.07-.55.2-1.08.69-1.34.08-.04 8.03-4.33 10.36-14.21 2.29-9.73-1.41-21.46-11.01-34.83-.12-.16-.17-.34-.21-.53-17.97-23.69-29.48-52.55-31.84-83.92-.57-.36-1.13-.75-1.68-1.16-2.1.55-4.37.83-6.79.66-7.9-.56-15.18-5.75-21.64-15.43-.31-.46-.29-1.06.04-1.5s.91-.63 1.43-.46c.08.03 8.74 2.62 17.37-2.72 5.52-3.42 9.84-9.23 12.93-17.33 5.15-31.31 19.46-59.57 40.09-81.93-1.6-1.02-3.15-2.28-4.53-3.86-5.19-5.98-6.67-14.8-4.39-26.21.11-.54.55-.96 1.09-1.03.55-.07 1.08.2 1.34.69.04.07 3.46 6.38 11.19 9.41 9.46-13.69 19.53-20.28 28.61-23.08l-22.96-6.37c-.55-.15-.94-.65-.95-1.23-.01-.57.35-1.09.9-1.27 12.56-4.11 29.58-4.14 44.67-2.88l-16.52-3.71c-.58-.13-1-.63-1.02-1.23-.02-.59.36-1.12.93-1.29 11.21-3.3 26.56-2.98 41.37-1.29l-45.26-11.45c-.6-.15-1.01-.7-.98-1.32.02-.62.48-1.13 1.09-1.23 19.71-3.3 41.39-.16 60.19 4.73l-43.77-18.73c-.54-.23-.85-.79-.78-1.36.07-.58.52-1.03 1.1-1.12 23.93-3.51 53.81 9.26 75.49 21.19l-40.42-29.93c-.46-.34-.64-.93-.46-1.47s.65-.89 1.27-.88c34.12.91 58.65 27.42 69.25 41.39l-6.74-18.5c-.17-.47-.06-.99.28-1.34.34-.36.86-.49 1.33-.34 20.02 6.28 17.54 25.37 16.55 30.24-.14.7-.25 1.11-.26 1.14l-2.5-.71c.03-.11.16-.57.3-1.28.93-4.53 2.76-19.66-12.3-25.97l9.26 25.41c.02.06.02.13.03.2.11.58-.15 1.17-.7 1.43-.61.28-1.34.06-1.68-.52-.02-.04-.22-.37-.56-.91-3.95-6.26-29.15-43.73-68-47.37l63.98 47.37.34.26c.12.09.2.2.28.31-.12-.19-.24-.38-.36-.56-12.74-19.45-37.76-33.84-38.01-33.98-.31-.18-.42-.58-.24-.89s.57-.42.89-.24c.26.15 26.15 15.04 38.92 35.11.16.26.33.51.49.77.19.31.09.71-.21.89-.11.07-.22.1-.34.1-.22 0-.43-.11-.55-.31-.15-.25-.32-.49-.47-.74.22.43.21.95-.1 1.37-.43.58-1.24.7-1.82.28-.08-.06-1.27-.92-3.35-2.35-12.76-8.75-59.3-38.8-94.21-37.06l63.82 27.3c12.62 4.71 21.25 8.96 22.85 9.76.15.08.27.13.29.14.62.32.88 1.08.58 1.71-.22.47-.7.75-1.2.75-.16 0-.33-.04-.49-.11l-5.84-2.5-17.31-7.41c-20.11-7.5-50.27-16.14-77.67-13.57l73.55 18.6c7.03 1.63 11.69 2.94 12.34 3.12.23.06.41.2.57.36.31.32.46.77.34 1.23-.18.69-.89 1.1-1.58.93l-2.01-.51-8.43-2.13c-16.78-3.95-50.13-10.57-71.92-6.78 0 0 45.32 10.19 45.34 10.2.66.16 1.08.8.97 1.46 1.86-.31 3.73-.59 5.62-.83 2.63.44 5.02 1.09 7.19 1.86-2.32.19-4.63.43-6.92.73-2.13-.39-4.43-.63-6.91-.68-.05 0-.11 0-.16 0-1.93-.03-3.98.07-6.13.31 1.23-.26 2.46-.51 3.7-.75-1.62-.33-4.13-.82-7.31-1.37-14.87-2.58-44.26-6.53-64.42-1.82l23.01 6.38c12.48-2.07 22.2 2.43 24.3 3.51 1.67-.6 3.35-1.17 5.04-1.72-8.78-7.19-32.54-5.83-32.79-5.81-.35.02-.67-.25-.69-.61s.25-.67.61-.69c1.08-.07 25.59-1.47 34.3 6.64.35-.11.69-.23 1.04-.34.81-.25 1.63-.49 2.45-.73.17.66.43 1.5.85 2.46-.6.17-1.2.35-1.79.53.08.28-.02.58-.34.78-5.63 3.39-14.05 9.94-12.87 13.2.7 1.93 5.5 4.56 29.4 1.17.89-.13 1.8-.26 2.74-.4.35-.05.69.19.74.55s-.19.69-.55.74c-.11.02-.21.03-.32.05-8.86 1.34-15.93 2.01-21.24 2.01-5.67 0-9.33-.77-11.05-2.3-.03.03-.04.07-.08.1-6.72 5.76-7.32 8.65-6.64 10.07.23.48.64.89 1.23 1.2.47-.34 1.11-.32 1.56.03.28.22.43.53.47.87 6.11 1.68 18.64.1 24.47-.95-.31-.45-.51-.92-.58-1.42-.38-2.95 3.66-6.06 12.3-9.46.98-.39 2-.77 3.09-1.17.34-.12.71.05.83.39s-.05.71-.39.83c-.51.18-.97.36-1.44.53-11.74 4.39-13.28 7.32-13.1 8.7.51 3.94 14.54 6.64 23.42 7.44.07 0 .15.01.22.02.36.03.62.35.59.7-.03.34-.31.59-.71.59-.36-.03-1.15-.11-2.22-.23-2.31-.26-5.97-.75-9.68-1.54-13.21 5.49-15.65 9.39-15.36 11.71.56 4.51 11.51 7.41 17.31 8.47 4.89-1.16 9.92-1.98 15.06-2.39 2.7-.22 5.42-.36 8.17-.36 3.42 0 6.81.17 10.15.51-.12.7-.21 1.6-.2 2.59-.86-.09-1.74-.13-2.61-.2-2.43-.18-4.87-.3-7.34-.3-14.9 0-29.03 3.38-41.67 9.39-5.26 3.95-15.45 12.98-17.97 25.21-1.77 8.54.48 17.25 6.68 25.88.3.42.33.97.07 1.41-.25.43-.73.68-1.26.64-.67-.07-16.6-1.84-24.38-13.26-1.16-1.71-2.04-3.55-2.7-5.5-5.98 9.04-10.5 19.12-13.21 29.91-.49 7.16.03 17.67 5.58 26.12 4.79 7.29 12.54 11.86 23.02 13.58.51.08.92.45 1.05.95.13.48-.03 1-.44 1.34-.53.43-13.04 10.44-26.62 7.86-.7-.13-1.39-.32-2.07-.52 6.21 22.69 20.42 42.12 39.42 55 1.29.46 2.62.85 3.99 1.13 8.54 1.77 17.25-.48 25.88-6.68.42-.3.97-.33 1.41-.07.43.25.68.73.64 1.26-.05.49-1.02 9.14-5.99 16.79 9.04 2.78 18.63 4.28 28.56 4.28s19.36-1.48 28.32-4.21c2.54-1.26 5-2.83 7.21-4.81 6.5-5.82 9.86-14.17 10-24.79 0-.51.31-.97.78-1.18.46-.2.99-.12 1.39.23.38.34 7.15 6.61 10.24 15.59 16.41-12.19 28.87-29.41 35.07-49.36-.01-8.51-3.82-16.46-11.33-23.64-.37-.35-.5-.89-.33-1.37.17-.47.59-.81 1.12-.86.44-.04 7.33-.55 14.78 1.77.08-1.57.12-3.15.12-4.74 0-3.52-.2-6.99-.56-10.41-.05-.15-.07-.3-.06-.48-1.21-10.84-4.21-21.15-8.69-30.63-.62-.79-1.29-1.56-2-2.3-6.06-6.28-14.51-9.34-25.14-9.1-.51.01-.98-.28-1.2-.74-.22-.45-.15-.99.18-1.4.3-.35 5.24-6.09 12.72-9.71-1.53-1.71-3.13-3.37-4.82-4.92-.11.07-.24.11-.36.11-.21 0-.41-.1-.54-.29-.2-.29-.67-1-1.28-1.98-10.05-9.19-22.03-16.3-35.26-20.65-.84-.28-1.68-.55-2.53-.8.41-.77.92-1.54 1.53-2.27.92.28 1.82.6 2.72.9 1.65.56 3.28 1.18 4.95 1.77 3.2-1.66 6.13-2.84 8.77-3.55 3.98-1.07 7.32-1.07 9.97.02.18.07.37.14.54.23 3.6 1.73 4.51 5.01 4.64 5.56 2.72-1.36 8.44.61 17.41 5.99-2.35-4.89-3.7-9.41-2.33-11.81.12-.21.26-.4.42-.57 1.59-1.72 4.97-1.54 10.2.54 4.27 1.7 9.77 4.66 16.56 8.92.49-.91 1.04-1.81 1.65-2.71-8.86-14.78-9.88-20.31-9.03-22.68l-4.13-3.18-.42-.32c-.28-.22-.34-.63-.12-.91s.63-.34.91-.12l.46.35 4 3.08s.09-.09.14-.13c2.72-2.38 10.1 1.67 15.77 5.46-4.38-4.53-9.03-8.81-13.93-12.79-.47-.38-.94-.76-1.41-1.13-.03-.02-.06-.05-.08-.07-.26-.2-.51-.41-.77-.61.87-.37 1.7-.83 2.47-1.36.7.56 1.41 1.12 2.1 1.69 10.18 8.36 19.3 17.95 27.14 28.54 1.34-1.34 2.85-2.65 4.56-3.91.43-.32 1.02-.34 1.47-.04.19.12 15.83 10.52 14.58 30.94 2.05.41 4.11 1.13 6.17 2.15 1.96-.92 4.14-1.63 6.55-1.9 7.87-.91 15.98 2.85 24.12 11.17.39.39.48.99.24 1.49zm-79.97-36.87c1.95-2.6 4.45-5.13 7.67-7.48.43-.32 1.02-.34 1.47-.04.11.07 4.91 3.26 8.99 9.53.69-1.04 1.47-2.07 2.34-3.08-2.92-3.98-6.03-7.81-9.31-11.48-6.85-5.18-16.85-11.37-19.32-9.21-1.19 1.05-1.68 5.28 8.16 21.78zm16.69 4.38c-3.01-4.99-6.67-8.04-8.23-9.2-11.95 9.18-12.98 20.74-11.58 29.14.4-.02.8-.03 1.2-.03 6 .01 11.67 2.32 16.91 6.89-1.99-6.42-3.66-16.87 1.7-26.8zm-31.33 20.35c1.18.35 2.35.76 3.5 1.3 1.75-.66 3.61-1.17 5.55-1.46-.91-5.69-.78-12.69 2.52-19.53-10.11-6.35-16.24-9.1-19.97-10.07-2.68-.69-4.1-.47-4.86.02-.15.1-.28.2-.38.31-3.64 3.95 8.04 21.78 13.65 29.44zm-29.07-11.62c-2.16-4.42-3.82-9.33-1.98-11.55-.15-.09-.26-.23-.3-.42-.03-.13-.69-3.17-3.97-4.73-3.83-1.83-9.76-.82-17.16 2.84 8.46 3.55 16.32 8.23 23.41 13.85zm13.14 12.48c2.89-1.11 6.09-1.85 9.49-1.84 1.51 0 3 .18 4.47.48-2.34-3.27-6.51-9.33-9.63-15.25-13.52-8.38-17.32-7.79-18.38-6.68-1.73 1.8.59 7.63 3.5 12.94 3.76 3.19 7.3 6.65 10.55 10.36zm15.2 23.04c6.96 9.06 8.64 20.61 8.99 27.11l11.24-20.07c-1.39-2.67-3.14-5.23-5.33-7.5-5.05-5.23-11.76-8.22-20-8.94-1.04-.09-2.11-.15-3.2-.17-.64-.01-1.28 0-1.93 0-.51.01-.98-.28-1.2-.74-.22-.45-.15-.99.18-1.4.07-.08.38-.44.89-.97.46-.49 1.09-1.12 1.88-1.85 2.12-1.96 5.36-4.57 9.38-6.61-2.15-.74-4.35-1.16-6.6-1.16-2.69 0-5.26.53-7.65 1.36-.88.31-1.73.65-2.55 1.03-4.61 2.12-8.31 5.17-10.46 7.21 7.99.29 14.74 2.52 20.19 6.58 1.34 1 2.62 2.08 3.8 3.3.86.9 1.64 1.84 2.38 2.8zm59.65 55.02c-14.94-1.95-23.84 5.48-28.79 12.42.29.27.58.54.87.83 4.24 4.25 6.61 9.89 7.09 16.83 3.13-5.95 9.34-14.52 20.15-17.75 1.4-5.66.97-10.41.69-12.33zm-47.21-5.17c2.16 1.15 4.25 2.61 6.12 4.48 2.42 2.43 4.21 5.33 5.41 8.65 1.7.77 3.38 1.72 4.96 2.89 1.11-1.53 2.4-3.07 3.87-4.55-.1-7.99-.61-13.74-1.36-17.83 0-.03-.02-.06-.02-.09-1.27-6.84-3.2-9.04-4.9-9.41-1.05-.24-2.21.17-3.4.99-.04.04-.08.06-.12.09-4.19 3-8.77 11.09-10.56 14.79zm39.92 2.36c-.28-1.92-.79-4.71-1.5-7.81-1.16-5.01-2.84-10.61-4.92-13.89-.25-.09-.47-.26-.62-.49l-.98-1.47c-.57-.49-1.17-.8-1.79-.85-2.09-.21-5.41 2.42-9.81 15.71.78 4.27 1.22 9.82 1.35 16.68 4.42-4 10.39-7.29 18.28-7.89zm-1.76-13.98c-.01-7.7 1.41-12.44 4.25-14.1 2.29-1.34 4.68-.23 5.45.2l-10.4-15.5c-1.63 5.71-2.37 12.53-2.19 20.44 0 .38-.16.72-.42.97 1.31 2.17 2.42 5.04 3.32 7.98zm-2.57-32.17-2.61-3.88-7.13 12.72 6.8 10.13c.15-7.29 1.13-13.61 2.93-18.96zm-11.16 11.38s-8.84 15.78-8.85 15.79c1.8 1.08 3.19 3.62 4.19 7.7 3.55-10.05 6.99-14.81 10.45-14.51.09 0 .18.03.27.05zm-11.28 15.07c0-.15.61-11.65-4-22.55l-4.38 7.82c1.12-.61 2.47-1.01 3.72-.43 2.7 1.27 3.53 6.49 2.53 15.93.72-.36 1.44-.59 2.15-.65 0-.04-.02-.08-.01-.12zm-15.94 10.33c0 1.89-.06 3.77-.17 5.64.6.24 1.2.51 1.8.79.68-1.42 5.54-11.27 10.77-15.12 1.42-12.23-.44-15.05-1.68-15.63-1.56-.73-3.88 1.2-4.64 2-.03.03-.07.05-.11.08l-6.53 11.66c.37 3.48.56 7 .56 10.57zm-5.14 22c.54 2.35.8 4.75.78 7.19v.28c-.24 12.96-8.3 23.83-13.11 29.19l22.14-6.24c.9-2.87 1.48-5.92 1.54-9.07.14-7.64-2.77-14.83-8.66-21.43-.67-.76-1.4-1.5-2.15-2.24-.18-.18-.35-.35-.53-.53-.37-.35-.5-.89-.33-1.37.17-.47.59-.81 1.12-.86.04 0 .13 0 .24-.02.42-.03 1.35-.07 2.65-.05 2.87.04 7.52.41 12.36 1.99-1-2.05-2.26-3.9-3.85-5.49-2.2-2.21-4.79-3.79-7.44-4.93-.84-.36-1.69-.69-2.54-.97-4.39-1.45-8.68-1.84-11.42-1.91 4.78 5.14 7.85 10.66 9.19 16.48zm31.08 44.79-14.03 3.95-2.35 11.97c5.26-5.05 10.43-8.83 15.48-11.34l.9-4.59zm-16.84 4.74-16.06 4.52c1.84 2.14 2.06 7.6-16.53 29.89.59.28 1.18.58 1.77.91 3.86-3.46 17.83-15.63 27.89-20.11 0-.11-.01-.22.01-.33l2.93-14.88zm-51.01 31.69c5.08-.62 11.18-.38 17.2 2.17 17.7-21.18 18.11-26.95 16.77-28.5-.15-.18-.36-.31-.58-.43-.36.04-.71-.06-.98-.29-5.54-.81-21.3 7.35-31.19 13.49-.34 2.75-1.15 5.41-2.47 7.96.59 1.77 1.04 3.65 1.26 5.6zm.15 3.68c-.23 6-2.75 11.58-7.5 16.65 6.48-1.76 16.99-3.05 26.72 2.67 5.1-2.83 8.28-6.38 9.49-7.89-8.75-12.27-20.25-13.72-28.7-12.63 0 .4 0 .8-.01 1.2zm45.36-51.47-16.32 4.6c1.32 3.69-2.2 12.31-3.91 16.09 2.59-.84 4.91-1.33 6.71-1.24.06-.25.19-.49.39-.68.12-.1 8.67-7.81 13.12-18.78zm-44.85 25.42c.53 2.19.83 4.5.74 6.91 0 .09-.02.18-.03.27 3.6-2.19 13.83-8.23 22.21-11.31 2.67-5.67 5.49-13.85 4.39-16.35l-6.83 1.93c-.86.61-1.82 1.34-2.92 2.23-5.18 6.11-11.07 11.6-17.55 16.32zm-20.88 8.87c-.2.19-.37.39-.58.57-2.43 2.18-5.1 3.9-7.85 5.26-8.18 4.05-17.06 4.92-22.45 5.02l19.65 11.96c2.71-1.29 5.34-2.95 7.69-5.06 4.94-4.43 8.06-10.31 9.34-17.54.18-1.02.33-2.07.43-3.15.13-1.33.21-2.69.23-4.1 0-.51.31-.97.78-1.18.46-.2.99-.12 1.39.23.13.12 1.07.99 2.35 2.45.52.59 1.08 1.26 1.69 2.03 1.63 2.09 3.47 4.81 4.94 8 .82-2.13 1.31-4.31 1.4-6.56.07-1.78-.1-3.51-.44-5.18-.18-.92-.42-1.82-.7-2.69-1.83-5.79-5.43-10.53-7.71-13.12-.7 9.62-4.13 17.35-10.17 23.05zm-38.22 28.13c.19-.58.76-.94 1.36-.89.15.01 11.63 1.03 22.68-3.18l-5.58-3.4c-3.36 2.46-21.22 3.54-33.07 4 .18.75.22 1.48.06 2.18-.02.09-.06.17-.08.26 3.45 1.13 23.55 8.01 25.35 15.23l5.29-3.28-15.45-9.41c-.52-.31-.75-.95-.56-1.52zm7.11 34.81 17.03-10.56c-5.46-1.77-12.01-2.75-19.6-2.9-4.8 1.94-12.37 3.45-22.77 4.57.86 1.37 1.23 2.66.87 3.8-.03.1-.07.19-.11.28 13.06-2.52 21.05-2.05 23.71 1.42.91 1.18 1 2.44.87 3.39zm-58.69-41.62c-4.96 3.38-10.94 4.67-17.85 3.86 5.27 4.17 12.54 11.86 13.73 23.08 5.3 2.42 10.05 2.87 11.99 2.95 4.68-14.33-.99-24.45-6.89-30.59-.32.24-.64.47-.97.7zm2.88-2.31c3.53 3.73 6.97 8.8 8.49 15.18 7.6-.35 23.19-2.18 24.41-7.63.12-.53.1-1.15-.12-1.86-.33-.02-.6-.28-.61-.62 0-.17.06-.32.16-.44-1.59-2.94-6.46-7.19-18.42-13.17-.22.16-.42.33-.64.48-2.83 1.93-6.01 3.16-9.5 3.72-1.07 1.53-2.32 3-3.76 4.34zm15.04-9.42c10.57 5.33 16.72 9.88 18.6 13.78 14.52-.55 29.76-1.92 32.44-3.38l-1.75-1.07c-2.55-.75-8.1-1.86-20.14-3.23-.38.19-.97.33-1.93.33-3.12 0-10.14-1.44-26.36-7.18-.28.25-.56.51-.85.75zm-5.89 28.77c3.58 1.9 15.76 8.62 20.45 14.47 10.62-1.11 17.46-2.54 21.78-4.04-.05-.09-.11-.19-.14-.3-.15-.56.08-1.15.57-1.45l6.42-3.98c-.54-5.68-17.73-12.49-24.7-14.76-3.56 5.63-19.41 6.9-24.79 7.17.18.93.31 1.9.4 2.89zm66.53 12.25 3.97-2.46-12.45-7.58-8.55 5.3c-.3.4-.66.8-1.11 1.17 6.98.45 13.03 1.64 18.14 3.57zm-26.6-40.37c-2.37 0-4.72-.1-7.05-.26 1.57 1.36 3.24 3.14 3.03 4.51 7.36.85 12.34 1.61 15.7 2.27l-10.26-6.25c-.13-.08-.24-.18-.34-.3-.36 0-.72.03-1.08.03zm-30.16-4.66c-.61.78-1.28 1.52-1.99 2.25 21.12 7.44 25.64 7.18 26.6 6.71.04-.04.09-.06.13-.08.05-.04.08-.08.1-.11.3-.57-1.66-2.74-4.08-4.56-7.17-.67-14.12-2.09-20.77-4.2zm-25.46-12.28c-10.34-3.73-17.87-11.97-21.7-16.98l2.05 22.91c2.65 1.41 5.54 2.54 8.63 3.18 6.82 1.41 13.75.25 20.66-3.42.89-.47 1.78-.99 2.67-1.55.85-.53 1.7-1.09 2.55-1.7.42-.3.97-.33 1.41-.07.43.25.68.73.64 1.26-.02.15-.12 1.08-.4 2.49-.14.74-.34 1.61-.59 2.59-.69 2.69-1.84 6.14-3.72 9.56 2.2-.61 4.25-1.5 6.11-2.77 1.73-1.18 3.21-2.59 4.49-4.11.6-.71 1.15-1.44 1.66-2.19 3.23-4.74 4.79-10.07 5.48-13.29-7.31 4.62-14.71 6.59-22.05 5.88-1.11-.11-2.22-.27-3.33-.5-1.58-.33-3.1-.77-4.56-1.3zm-38.99 9.67-11.33-4.52c3.99 6.1 6.75 11.88 8.28 17.31l4.34 1.73-1.3-14.52zm-21.96 4.5c-.22.19-.46.33-.72.45l10.26 4.1c-2.65-8.02-6.98-12.07-9.16-13.68 1.02 4.16 1.23 7.71-.38 9.13zm15.81 7.05c-1.88-5.63-5.12-11.68-9.74-18.11-.34-.47-.32-1.11.03-1.56.36-.46.97-.62 1.51-.41l12.73 5.08-6.33-7.1c-.29.43-.63.79-1.05 1.03-.46.26-.97.39-1.56.39-3.61 0-9.68-4.99-18.42-15.12-.04.07-.09.14-.13.2 1.08 2.22 4.95 10.38 7.01 17.51 1.37.76 7.87 4.93 11.24 16.2l4.7 1.88zm-31.79-66.02c2.04 5.46 5.07 9.14 6.39 10.56 13.44-6.82 16.59-17.99 16.76-26.51-.39-.05-.79-.12-1.18-.19-5.9-1.12-11.04-4.44-15.35-9.89.77 6.67.49 17.25-6.62 26.03zm41.06 15.86c-2.33 0-6.95-3.08-18.03-19.01-.14.33-.27.66-.42.99 4.64 12.15 5.66 18.02 5.32 20.95 18.18 20.15 21.68 20.24 22.32 19.78 1.74-1.23-3.02-12.69-8.5-22.82-.21.06-.42.1-.68.1zm-14.78 5.77c-.36.18-.75.28-1.18.28-4.49 0-12.51-8.7-14.4-10.82-.34.21-.67.43-1.03.64.45 3.18 1.55 12.54-.09 17.21 12.79 14.91 17.23 15.74 18.73 14.89.43-.24.75-.68.99-1.3 1.48-3.81-.8-13.99-3.01-20.9zm-14.46-11.24c4.26 4.75 11.62 11.48 13.97 10.05.97-.59 2.45-3.85-3.98-21.01-2.11 3.95-5.29 7.76-9.99 10.96zm-13.67-8.31c-2.08 2.14-4.64 4.13-7.75 5.89 10.83 20.56 15.07 22.84 16.65 22.32.2-.06.37-.19.54-.35.24-.24.45-.57.63-.99.02-.08.05-.15.09-.21 1.24-3.27.86-10.84.13-16.32-.58.31-1.15.63-1.76.93-.49.23-1.07.14-1.46-.23-.09-.09-4.22-4.11-7.07-11.02zm40.34 30.68c.08.13 6.08 9.96 16.03 16.36l-.38-4.25-3.42-5.1c-.23.11-.49.19-.81.19-2.35 0-7.7-3.47-22.37-19.66-.06.14-.13.26-.2.37.92 2.82 5.09 16.16 3.26 21.96l6.99 7.84-1.51-16.93c-.06-.6.32-1.17.89-1.35.58-.19 1.21.05 1.52.57zm13.72-9.58c-.05-.49.2-.94.6-1.2-3.39-4.48-6.38-9.26-8.99-14.28.31 3.05.21 5.98-.98 7.34 2.83 5.22 10.22 19.5 8.77 23.71l2.3 3.43zm-16.57-36.85c-1.48-.67-2.91-1.49-4.28-2.47-1.84.32-3.76.48-5.73.41-.1 3.45-.65 7.31-2.04 11.16.03.03.07.06.1.1 12.86 18.59 16.77 19.43 17.85 18.92 1.58-.73 1.27-5.71.36-10.61-2.6-5.58-4.72-11.43-6.27-17.51zm.25-36.13c-.67-4.5-.67-8.77-.42-12.28.1-1.39.23-2.68.38-3.79l-14.75 17.65c.88 2.88 2.12 5.72 3.85 8.36 2.06 3.13 4.7 5.73 7.83 7.85.87.59 1.78 1.14 2.74 1.65 3.59 1.92 7.73 3.31 12.46 4.08.51.08.92.45 1.05.95.13.48-.03 1-.44 1.34-.31.25-4.81 3.84-11.23 6.21-.79.29-1.6.57-2.44.81.96.54 1.94 1.01 2.95 1.4 1.08.41 2.18.74 3.32.96 9.09 1.72 17.94-2.96 22.07-5.62-9.72-2.19-17.03-6.94-21.75-14.14-3.2-4.87-4.85-10.29-5.62-15.42zm-53.59-32.25c.01.06.02.12.02.19-.12 1.02-.19 1.91-.22 2.72l2.7 6.3c3.55-.77 10.14-8.41 13.98-13.78-.31-3.4.45-9.72 3.73-21.66-.26-.08-.52-.16-.78-.26-1.63 3.18-5.28 6.89-13.27 9.24-2.38 5.59-4.44 11.34-6.16 17.24zm57.48-38.26c-4.17 5.27-11.86 12.54-23.08 13.73-2.42 5.3-2.87 10.05-2.95 11.99 14.33 4.68 24.45-.99 30.59-6.89-.24-.32-.47-.64-.7-.97-3.38-4.96-4.67-10.94-3.86-17.85zm6.16 20.73c-6.13 5.8-15.82 11.36-29.1 8.5-.62 4.35-1.11 12.74 1.6 15.56.39-.33.94-.41 1.41-.17.44.22.69.67.7 1.15 2.34.11 6.27-1.87 12.89-8.97.02-.03.04-.05.07-.07 3.45-3.71 7.64-8.81 12.7-15.71-.09-.09-.18-.17-.26-.27zm-32.02-6.84c-3.14.04-6.53-.4-10.18-1.47-5.49 20.02-3.58 23.44-2.49 23.97 2 .97 7.03-4.03 10.62-8.58-.44-.21-.73-.64-.75-1.13 0-.13-.08-5.89 2.79-12.79zm-28.62 34.76 6.97 16.22c2.65-5.31 4.64-11.87 5.92-19.69.09-.57.55-1.01 1.13-1.08.11-.01.22 0 .33.01l.45-6.95c-.39-.34-.74-.87-1-1.7-2.51 3.37-9.18 11.85-13.8 13.19zm8.29 19.3 1.84 4.29 9.35-11.18-4.81-11.21c-1.49 7.14-3.62 13.17-6.38 18.1zm13.07-9.13 10.91-13.05c-3.52-3.58-2.45-13.57-1.99-16.83-.78-.2-1.57-.43-2.37-.69-2.38 3.08-7.81 9.55-11.41 9.55-.15 0-.29-.02-.43-.04l-.49 7.59 5.79 13.47zm13.64 10.18 15.28-18.28c-.48-.19-.96-.44-1.4-.85-1.93-1.78-2.38-5.32-1.35-10.56-5.11 5.18-9.13 7.75-12.12 7.76-.13 0-.25-.03-.38-.04-.59 2.91-2.13 12.3-.03 21.96zm30.14-43.84c-.04-.22-.11-.44-.14-.67-1.09-.76-2.14-1.62-3.15-2.56-4.72 6.43-8.91 11.61-12.58 15.56-1.84 7.35-.76 10.27.48 11.42.43.4.93.62 1.42.74l.53-.63c.33-.4.87-.54 1.36-.4 2.99-8.39 7.08-16.27 12.08-23.46zm30.34-25.48c2.81-3.06 5.65-5.48 7.86-7.17l-.49.04-22.42 2c-1.41 2.65-2.54 5.54-3.18 8.63-.55 2.68-.71 5.38-.48 8.08.09 1.08.25 2.17.47 3.26.98 4.84 3.21 9.71 6.69 14.55.3.42.33.97.07 1.41-.25.43-.73.68-1.26.64-.45-.05-7.6-.84-14.64-4.7.61 2.2 1.5 4.25 2.77 6.1 5.21 7.64 14.77 10.59 19.58 11.63-5.32-8.42-7.13-16.95-5.38-25.38 1.61-7.78 5.97-14.24 10.41-19.09zm25.68-14.08c-1.42-.32-3.08-.73-4.77-1.25-2.52.89-15.9 5.47-23.67 5.47-2.52 0-4.44-.48-5.21-1.73-.53-.85-.53-1.93 0-3.25-1.91 2.03-3.81 4.35-5.48 6.95l25.94-2.32c.34-.03.66.09.92.29 3.96-1.65 8.06-3.03 12.25-4.17zm-15.5-8.13s-.05 0-.09 0c-1.24 0-5.17-.12-7.53-1.48-.81.52-2.98 1.98-5.65 4.24-4.18 4.56-4.21 6.43-3.76 7.17 1.88 3.04 16.08-.48 25.74-3.73-3.97-1.43-7.71-3.46-8.7-6.2zm14.26-13.28c-3.08-.76-6-1.75-8.03-3.01-12.62 7.14-14.55 10.63-14.41 12.17h.13c.6-.07 1.17.31 1.35.88.09.26.07.53 0 .78 1.81.88 4.83 1.14 6.45 1.15-.13-3.75 4.63-7.68 14.51-11.98zm-34.94-2.73-5.39 13.5 16.61-1.48c-.27-3.08 4.48-7.37 14.47-13.09-.07.05-.15.08-.23.09-1.55.29-10.08 1.81-17.64 1.81-2.9 0-5.65-.23-7.82-.83zm-22.81 15.05 14.52-1.3 4.52-11.33c-6.1 3.99-11.88 6.75-17.31 8.28l-1.73 4.34zm25.65-29.43s.09-.06.14-.08c-.02-.03-.03-.07-.05-.1-2.34 1.12-8.38 3.81-12.25 3.81-1.21 0-2.2-.26-2.82-.93l-7.7 19.3c5.29-1.76 10.95-4.74 16.94-8.92-.55-.41-.97-.89-1.24-1.45-1.29-2.69.99-6.49 6.97-11.62zm11.33-13.93c-8.3 2.69-16.3 6.05-23.93 10.02.1.19.11.43-.01.63-.11.18-.18.32-.28.49 0 .15-.02.31-.08.46l-1.32 3.3c0 .45.14.71.28.86 1.48 1.62 8.83-.91 13.78-3.3-.09-4.24 7.61-9.86 11.55-12.45zm-61.53 20.95c.15.04.28.09.43.12 4.86 1.14 10.22.79 16.04-1.04 10-7.25 20.89-13.34 32.44-18.13-18.86-4.94-35.08 13.64-35.24 13.84-.13.15-.31.23-.49.23-.15 0-.3-.05-.42-.16-.27-.23-.31-.64-.07-.92.18-.2 17.82-20.46 38.14-13.79.46-.18.93-.34 1.39-.52-3.84-1.63-11.74-4.1-21.36-2.2l-.08-.02c-9.36 1.83-20.33 7.79-30.76 22.6zm-6.84 17.34c.45.32.9.62 1.36.9.45.27.9.53 1.36.76.05.48.11.94.18 1.4.09.58.18 1.14.3 1.69.27 1.27.66 2.45 1.12 3.57.33.82.72 1.6 1.15 2.35-.8.41-1.56.84-2.29 1.29-14 8.49-15.66 22.54-15.85 26.2 4.3 1.4 8.21 1.85 11.75 1.67 1.03-.05 2.03-.15 2.99-.31 12.24-2 19.49-11.8 22.02-15.89.6-.97.94-1.63 1.02-1.78.24-.48.75-.75 1.26-.71.12 0 .25.04.37.08.08.03.14.09.21.13.48.3.73.87.58 1.43-2.49 8.93-1.75 16.39 2.2 22.18.13.19.27.36.4.54.5.69 1.03 1.34 1.6 1.95.68.73 1.4 1.41 2.15 2.03.74.62 1.51 1.19 2.29 1.71.16.11.31.22.47.33.58.37 1.16.72 1.75 1.04 4.07 2.26 8.24 3.45 10.93 4.02-2.36-3.73-4.02-7.48-5-11.23-.27-1.03-.49-2.07-.65-3.1-.58-3.69-.5-7.38.26-11.05.58-2.78 1.52-5.39 2.67-7.82.45-.94.92-1.86 1.43-2.74 4.18-7.27 10.19-12.66 14.17-15.71l-14.45 1.29-2.91.26-15.32 1.37c-.45.04-.89-.16-1.16-.52s-.33-.84-.17-1.26l1.83-4.59 1.17-2.92 8.88-22.24c-5.44 3.57-10.63 6.15-15.55 7.75-2.18.71-4.31 1.23-6.38 1.56-4.06.64-7.9.53-11.52-.34-7.2-1.72-11.68-6.01-13.97-8.89-1.28 9.05.17 16.05 4.34 20.86.92 1.07 1.95 1.96 3.01 2.73zm-26.95 48.02c7.25-2.36 10.37-5.85 11.68-8.71-.01-.06-.03-.13-.03-.19 0-.23-.26-19 17.31-29.51-.55-1.31-.99-2.71-1.31-4.18-11.38 12.52-20.76 26.89-27.64 42.59zm-16.38 70.65c.31.25.61.48.92.72.53.4 1.07.79 1.6 1.13.37.24.74.44 1.12.65.73.4 1.46.78 2.2 1.09.82.34 1.64.63 2.47.85-.28.86-.51 1.7-.71 2.53-3.9 15.91 4.86 27.02 7.32 29.74 4.03-2.05 7.11-4.49 9.49-7.13.69-.76 1.33-1.54 1.9-2.33 7.24-10.07 5.44-22.12 4.33-26.81-.26-1.11-.48-1.82-.54-1.98-.17-.51 0-1.06.39-1.39.09-.08.2-.15.32-.2.08-.03.16-.04.24-.06.55-.13 1.13.1 1.42.61 4.55 8.07 10.35 12.82 17.24 14.13.22.04.44.06.66.1.84.13 1.68.22 2.51.25 1 .04 1.98 0 2.96-.08 1.16-.1 2.29-.28 3.4-.51.81-.18 1.6-.39 2.37-.62.86-.26 1.69-.54 2.49-.85 3.2-1.22 5.89-2.75 7.68-3.9-3.17-.72-6.06-1.73-8.72-2.99-.96-.45-1.88-.95-2.77-1.47-4.19-2.47-7.64-5.68-10.27-9.68-1.56-2.37-2.74-4.88-3.64-7.42-.35-.98-.66-1.96-.93-2.95-2.19-8.1-1.75-16.16-1.09-21.13l-9.31 11.13-1.87 2.24-9.86 11.8c-.29.35-.74.52-1.19.45s-.83-.36-1.01-.77l-1.95-4.54-1.24-2.89-8.52-19.84c-.43-.46-.75-1.1-.99-1.92-.84 3.96-1.88 7.57-3.11 10.85-1.08 2.87-2.31 5.49-3.69 7.83-2.85 4.84-6.34 8.54-10.45 11.07-6.31 3.88-12.51 4.01-16.16 3.59 5.49 7.3 11.48 11.23 17.82 11.68 1.41.1 2.76 0 4.06-.2 1.07-.17 2.11-.42 3.1-.74zm3.88 5.58c.13 1.53.29 3.06.46 4.58.18-1.31.43-2.65.78-4.02-.42-.17-.83-.36-1.24-.55zm4.58 26.36c2.87 10.87 6.9 21.28 11.92 31.1-.16-4.63-1.26-12.64-5.64-23.46-.36.03-.72-.09-.99-.34-.07-.07-2.76-2.68-5.29-7.3zm26.49 54.32c.21-.16.51-.18.74-.03 3.32 2.17 5.69 2.88 6.69 1.99 2.9-2.56-2.8-17.4-7.28-26.65-.12.07-.25.13-.39.17-.25.08-.52.13-.82.13-2.46 0-7.03-3.44-17.37-23.06-.19.1-.38.19-.57.29 5.44 13.4 5.93 22.46 5.76 26.47 3.88 7.25 8.31 14.17 13.25 20.69zm65.6 53.41c.19-.89.35-1.77.46-2.62.26-1.93.32-3.76.23-5.51-.05-1.03-.15-2.03-.31-2.99-2-12.24-11.8-19.49-15.89-22.02-.97-.6-1.63-.94-1.78-1.02-.48-.24-.75-.75-.71-1.26 0-.12.04-.25.08-.37.03-.08.09-.14.13-.21.3-.48.87-.73 1.43-.58 8.93 2.49 16.39 1.75 22.18-2.2.19-.13.36-.27.54-.4.69-.5 1.34-1.03 1.95-1.6.73-.68 1.41-1.4 2.03-2.15.75-.89 1.43-1.82 2.04-2.77 2.56-3.97 3.99-8.27 4.76-11.34.12-.47.22-.92.31-1.33-.46.29-.93.57-1.39.84-7.97 4.66-16.02 6.19-23.99 4.54-2.78-.58-5.39-1.52-7.82-2.67-.94-.45-1.86-.92-2.74-1.43-7.27-4.18-12.66-10.19-15.71-14.17l1.29 14.45.26 2.91 1.37 15.32c.04.45-.16.89-.52 1.16s-.84.33-1.26.17l-4.59-1.83-2.92-1.17-21.41-8.55-.82-.33c2.13 3.25 3.9 6.4 5.33 9.46 4.12 8.82 5.35 16.85 3.65 23.98-1.72 7.2-6.01 11.68-8.89 13.97 9.05 1.28 16.05-.17 20.86-4.34 1.07-.92 1.96-1.95 2.73-3.01.64-.88 1.2-1.79 1.66-2.72 1.08-.1 2.11-.26 3.1-.48 1.27-.27 2.45-.66 3.57-1.12.82-.33 1.61-.72 2.35-1.15.41.8.84 1.56 1.29 2.29 8.49 14 22.54 15.66 26.2 15.85.4-1.24.72-2.44.97-3.62zm2.94-1.64c2.83 1.09 5.7 2.1 8.6 3.03 23.56 2.76 28.13.04 28.73-1.87.3-.96-.16-2.14-1.12-3.43-.1-.07-.18-.17-.22-.3-3.72-4.68-13.78-10.75-19.49-13.84.15 3.95-.44 8.29-2.12 13.05-.18.51-.65.85-1.19.87-.13 0-5.89.08-12.79-2.79.02 1.69-.1 3.45-.38 5.28zm56.31 10.48c.33 0 .66-.01.99-.01.1-.24.27-.45.5-.59 0 0 3.63-2.25 3.64-2.28.05-.09.93-1.97-.32-3.57-1.38-1.77-6.31-4.22-23.87-.64-.05 0-.09 0-.14 0-2.02 1.42-5.96 2.12-11.92 2.12-2.83 0-6.13-.16-9.87-.48 13.07 3.55 26.8 5.46 40.97 5.46zm83.89-21.37c-.58-.7-1.18-1.34-1.78-1.96-1.59-1.62-3.23-2.96-4.9-4.07-.86-.57-1.72-1.08-2.59-1.53-11.04-5.66-22.68-2.09-27.16-.29-1.06.42-1.73.75-1.88.83-.48.24-1.05.16-1.44-.18-.09-.08-.18-.18-.25-.29-.05-.07-.06-.15-.09-.23-.21-.53-.07-1.13.39-1.49 7.3-5.7 11.14-12.15 11.4-19.15 0-.22 0-.44 0-.67 0-.85-.03-1.69-.13-2.52-.11-.99-.29-1.96-.52-2.91-.27-1.13-.61-2.23-1.01-3.28-1.52-4.02-3.81-7.44-5.74-9.87-.51-.65-1.01-1.24-1.45-1.74-.07.91-.18 1.79-.3 2.67-1.14 8.69-4.62 15.73-10.45 20.95-2.12 1.9-4.42 3.43-6.8 4.7-.92.49-1.84.95-2.77 1.36-7.68 3.37-15.72 4.13-20.73 4.22l12.39 7.55 2.49 1.52 13.13 8c.39.24.62.65.62 1.11 0 .45-.23.87-.62 1.11l-4.2 2.61-2.68 1.66-20.35 12.62c1.3.07 2.56.18 3.8.31 3.53.35 6.81.92 9.82 1.68 8.13 2.07 14.37 5.62 18.61 10.66 4.77 5.66 5.82 11.77 5.96 15.45 6.41-6.52 9.4-13.02 8.9-19.36-.11-1.41-.4-2.73-.8-3.99-.33-1.04-.73-2.03-1.2-2.95.56-.93 1.04-1.85 1.45-2.77.53-1.18.92-2.36 1.22-3.54.16-.63.28-1.27.37-1.9.03-.22.07-.45.1-.67.43.07.83.1 1.25.16.45.06.92.13 1.36.17 16.31 1.48 25.99-8.83 28.31-11.66-.58-.82-1.18-1.58-1.78-2.3zm23.98-21.87c9.12-18.89 8.6-24.78 6.5-26.37-1.16-.87-3.08-.74-5.45.08-.19.19-.37.37-.56.57-.39.41-1.01.52-1.52.26-8.51 3.83-21.06 14.06-27.43 19.73 3.6 2.26 7.08 5.49 10.19 10.07.3.45.3 1.03 0 1.48-.07.1-3.43 4.78-9.84 8.64 1.58 1.13 3.12 2.48 4.62 4.04 8.42-5.41 16.29-11.62 23.5-18.5zm11.52-12.19c-.09-.23-.13-.48-.08-.74l5.05-25.7c-4.46 2.48-9.04 6.01-13.71 10.59 1.84-.34 3.39-.19 4.5.64 3.4 2.56 1.88 10.7-4.61 24.79 3.08-3.07 6.04-6.26 8.85-9.58zm37.62-75.23c-.92.04-1.81.12-2.68.24-1.06.14-2.08.33-3.06.57-1 .24-1.96.52-2.88.85-11.66 4.22-16.98 15.19-18.71 19.69-.41 1.06-.63 1.77-.67 1.94-.15.52-.6.88-1.11.93-.12.01-.25 0-.38-.01-.08-.02-.15-.06-.23-.09-.53-.21-.88-.72-.83-1.3.8-9.23-1.31-16.43-6.25-21.39-.16-.16-.33-.3-.49-.45-.62-.58-1.26-1.13-1.93-1.62-.8-.59-1.64-1.12-2.49-1.6-1.01-.57-2.05-1.07-3.09-1.49-5.05-2.06-10.25-2.56-13.39-2.64 6.78 7.3 10.13 15.34 9.97 23.95-.05 2.84-.5 5.57-1.19 8.18-.27 1-.56 1.99-.9 2.96-2.76 7.92-7.68 14.32-11.03 18.05l13.96-3.93 2.81-.79 14.8-4.17c.44-.12.9-.01 1.24.3.33.31.48.76.39 1.21l-.95 4.85-.61 3.09-4.62 23.49c.41-.39.81-.76 1.22-1.13 2.63-2.44 5.24-4.55 7.82-6.35 7.65-5.32 15.07-7.85 22.18-7.51 7.39.36 12.59 3.75 15.37 6.16-.41-9.13-3.13-15.75-8.12-19.7-1.1-.88-2.27-1.57-3.46-2.13-.98-.47-1.98-.85-2.98-1.13-.3-1.04-.65-2.02-1.04-2.95-.5-1.19-1.1-2.28-1.76-3.3-.48-.75-1-1.45-1.56-2.1.71-.55 1.38-1.12 2.02-1.69 12.2-10.93 11.23-25.05 10.75-28.67-2.17-.28-4.2-.36-6.11-.27zm-2.24-2.44c1.15-7.64 1.75-15.46 1.75-23.42 0-3.94-.15-7.84-.44-11.71-.49.07-.99-.12-1.27-.55l-3.67-5.46c-.01.09-.04.18-.1.26-.2.3-.6.38-.9.18-.02-.02-2.32-1.5-4.33-.31-2.09 1.24-4.36 5.52-3.36 18.82.89 3.89 1.38 7.13 1.51 8.01v.08c2.29-.09 4.71.02 7.32.42.53.08.96.48 1.07 1.01.03.12 1.16 5.77-.38 13.09.9-.18 1.83-.33 2.79-.43zm26.51-79.88c-6.75-6.17-13.35-8.92-19.67-8.19-1.4.16-2.71.5-3.95.94-1.02.37-2 .8-2.91 1.3-.95-.52-1.89-.97-2.83-1.35-1.2-.49-2.39-.83-3.58-1.09-.87-.19-1.73-.32-2.59-.38.11-.89.19-1.76.23-2.62.89-16.35-9.77-25.65-12.68-27.87-1.42 1.09-2.68 2.22-3.8 3.37-.64.65-1.23 1.31-1.78 1.98-.92 1.12-1.73 2.26-2.43 3.41-.53.88-1.02 1.76-1.43 2.64-5.26 11.23-1.26 22.74.69 27.15.46 1.04.81 1.7.89 1.85.26.47.2 1.04-.12 1.44-.08.1-.17.18-.28.26-.07.05-.15.07-.22.1-.52.23-1.13.11-1.51-.33-5.96-7.09-12.54-10.69-19.55-10.7-.22 0-.44.02-.67.03-.85.03-1.69.09-2.51.22-.99.15-1.95.36-2.89.63-1.12.31-2.2.69-3.24 1.13-4.88 2.05-8.81 5.24-11.12 7.4.05.07.09.15.14.22 9.79.43 17.73 3.73 23.63 9.86 1.97 2.05 3.59 4.29 4.94 6.62.52.9 1.01 1.81 1.46 2.72 3.64 7.55 4.7 15.56 4.97 20.56l7.09-12.66 1.43-2.55 7.52-13.41c.22-.4.63-.65 1.08-.66.45-.02.88.2 1.13.58l2.76 4.11 1.76 2.61 13.35 19.88c.04-1.88.13-3.71.28-5.46.25-2.94.66-5.68 1.22-8.26 1.78-8.18 5.1-14.54 9.97-18.95 5.48-4.98 11.55-6.25 15.22-6.52zm-226.13-110.61c-.02.36.25.67.61.69s35.59 2.45 45.97 13.25c.05.05.11.09.17.12.09.05.19.08.3.08.16 0 .33-.06.45-.18.26-.25.27-.66.02-.92-.04-.04-.08-.08-.12-.12-10.86-11.05-45.24-13.43-46.7-13.53-.34 0-.67.25-.69.61zm1.32-11.66c-.08.35.14.7.49.78.43.1 40.73 9.21 55.72 16.12.94.43 1.79.86 2.52 1.28.1.06.21.09.32.09.22 0 .44-.12.57-.33.18-.31.07-.71-.24-.89-.33-.19-.7-.38-1.08-.58-13.72-7.05-55.69-16.54-57.52-16.95-.34-.08-.7.14-.78.49zm13.3-12.89c-.13.33.03.71.36.85.43.17 41.18 16.49 58.67 28.29.95.64 1.84 1.27 2.64 1.88.12.09.26.13.39.13.2 0 .39-.09.52-.26.22-.29.16-.69-.12-.91-.36-.28-.76-.56-1.15-.84-16.66-11.95-60.02-29.32-60.47-29.5-.34-.13-.71.03-.85.36zm72.77 9.69c-.15-.33-.55-.46-.87-.31s-.46.54-.31.87c.06.12 5.59 11.9 4.79 18.92-.02.21-.03.42-.07.62-.06.35.17.69.53.75h.11c.31 0 .58-.22.64-.54.04-.23.05-.48.08-.71.83-7.41-4.67-19.1-4.91-19.61z" fill="#10ffe8"/><path d="m293 261.79c-1.4-1.89-3.83-1.62-5.76-.83-1.72.71-3.37 1.66-5 2.56-1.68.94-3.34 1.91-5 2.9-3.28 1.94-6.54 3.92-9.92 5.67-3.26 1.68-6.63 3.14-10.19 4.05-4.03 1.03-8.1 1.13-12.23.75-2.23-.2-4.45-.49-6.67-.79-1.95-.26-3.9-.58-5.82-1.08-3.58-.93-6.93-2.56-9.25-5.51-2.17-2.76-2.76-6.18-1.27-9.45 1.48-3.26 4.17-5.85 7.11-7.81 3.28-2.18 6.92-3.69 10.56-5.15 4.03-1.61 8-3.25 11.72-5.51 1.84-1.11 3.64-2.29 5.54-3.29 1.8-.94 3.67-1.69 5.63-2.24 3.79-1.07 7.91-1.48 11.81-.85 3.51.57 6.98 2.14 8.74 5.35.76 1.4 1.16 3.03.91 4.56-.26 1.56-1.19 2.94-2.36 4.06-1.25 1.2-2.71 2.12-4.2 3-1.82 1.09-3.68 2.12-5.56 3.1-3.69 1.92-7.48 3.66-11.36 5.15-3.93 1.52-7.94 2.81-12.01 3.88-.96.25-1.94.53-2.94.51-.41 0-.79-.07-1.17-.22.04.01-.26-.13-.31-.16-.08-.05-.17-.1-.25-.16-1.07-.99-1.46-2.31-1.27-3.67.07-.3.09-.42.12-.54.06-.21.12-.41.2-.61.15-.41.36-.79.58-1.16.46-.76 1.02-1.42 1.64-2.05 1.32-1.33 2.83-2.47 4.45-3.43 1.6-.94 3.29-1.7 5.07-2.24s3.7-1 5.58-.89c.39.02.76.08 1.13.19.15.04.32.09.47.15.05.02.14.08.24.15-.04.07-.08.13-.12.19-.29.36-.61.69-.93 1-1.22 1.17-2.69 2.06-4.29 2.58-.71.23-1.19.93-1 1.68.18.69.97 1.23 1.68 1 1.95-.63 3.74-1.63 5.26-3.01.72-.66 1.48-1.43 1.98-2.28.73-1.25.37-2.56-.8-3.35-1.84-1.25-4.25-1.19-6.35-.88-2.01.29-3.96.87-5.84 1.63-3.72 1.5-7.29 3.89-9.78 7.06-1.21 1.54-2.1 3.48-2.09 5.47.01 1.75.65 3.62 1.96 4.83 1.65 1.54 3.84 1.69 5.97 1.26s4.24-1.1 6.31-1.74c4.2-1.31 8.33-2.86 12.36-4.63 3.98-1.75 7.87-3.73 11.62-5.92 3.31-1.93 6.83-4.13 8.29-7.86 1.43-3.66-.04-7.88-2.69-10.59-2.91-2.97-7.16-4.14-11.2-4.4-4.31-.27-8.74.4-12.79 1.89-2.11.78-4.12 1.77-6.05 2.91-1.88 1.11-3.7 2.32-5.61 3.37-7.39 4.08-15.92 5.81-22.59 11.2-3.05 2.46-5.84 5.89-6.7 9.79-.86 3.91.58 7.76 3.19 10.69 2.73 3.06 6.56 4.78 10.48 5.73 2.09.51 4.23.82 6.36 1.1 2.31.3 4.63.6 6.95.79 4.32.35 8.62.1 12.82-1.03 3.77-1.02 7.37-2.62 10.83-4.43s6.8-3.86 10.16-5.84c1.71-1.01 3.43-2.01 5.17-2.96.85-.46 1.71-.92 2.58-1.35.82-.41 1.67-.88 2.59-.98 1.37-.16 1.63 1.14 1.09 2.13-.38.7-1.03 1.22-1.69 1.65-.89.58-1.83 1.09-2.75 1.63l-12.53 7.3c-2.05 1.2-4.11 2.4-6.16 3.59-1.89 1.1-3.79 2.22-5.78 3.14-4 1.86-8.29 2.43-12.67 2.17-2.15-.13-4.29-.44-6.41-.84-1.83-.35-3.63-.83-5.5-.58-1.87.26-3.43 1.59-3.55 3.55-.14 2.3 1.72 3.95 3.66 4.75 1.81.75 3.83 1.14 5.75 1.5 2.03.38 4.08.66 6.13.81 4.09.3 8.21.11 12.27-.5 4-.61 7.92-1.68 11.67-3.18 1.94-.77 3.84-1.65 5.68-2.65 1.83-1 3.57-2.18 5.49-3.01.42-.18.85-.33 1.28-.45-.05.56-.22 1.07-.59 1.64-.9 1.37-2.41 2.39-3.84 3.23-3.64 2.14-7.51 3.87-11.54 5.13-2.05.64-4.14 1.17-6.26 1.57-1.04.2-2.09.37-3.13.51-1.03.14-2.07.19-3.1.37-2.11.37-4.27 1.96-3.99 4.34.25 2.06 2.27 2.94 4.12 3.01 2.06.07 4.22-.49 6.2-.97 2.08-.51 4.14-1.11 6.23-1.57 2.01-.44 4.05-.75 6.11-.65.12 0 .24 0 .36.02-.05.09-.11.18-.16.26-.36.51-.99.93-1.64 1.25-1.61.79-3.65.9-5.45 1.37-1.03.27-2.1.63-2.96 1.28-.98.74-1.56 2.04-.85 3.18.65 1.06 1.98 1.17 3.11 1.19.88.01 2.01-.11 2.68.37.23.17.31.38.4.53-.41.32-.55.4-.71.47-.31.14-.64.26-.95.4-1.7.78-2.57 2.66-1.49 4.34.51.79 1.3 1.34 1.98 1.89.23.19.48.45.64.73-.47.83-.13 1.8.45 2.15.71.43 1.43.12 1.9-.46.67-.84.58-1.98.13-2.9s-1.22-1.51-2-2.12c-.21-.16-.51-.42-.71-.68 0 0-.13-.22-.08-.1.02-.18.09-.21.15-.25.27-.16.57-.28.86-.4.66-.28 1.34-.58 1.83-1.12.69-.76.95-1.8.65-2.79-.29-.94-1.01-1.77-1.87-2.23-.99-.53-2.11-.59-3.21-.6.48-.15.98-.26 1.43-.36 1.88-.41 3.78-.63 5.51-1.51 1.55-.79 3.33-2.39 3.37-4.28.05-2.65-3.44-2.48-5.24-2.37-4.23.25-8.24 1.66-12.36 2.57-1.01.22-2.02.42-3.05.54-.35.04-.7.07-1.05.06-.18 0-.35-.01-.53-.03-.22-.03-.29-.05-.36-.07-.05-.01-.44-.17-.36-.12-.07-.04-.14-.08-.2-.12-.13-.11-.18-.16-.15-.33.04-.2.17-.44.38-.63.23-.21.56-.36.9-.46.99-.27 2.04-.31 3.05-.43 1.02-.12 2.03-.27 3.04-.45 2.02-.36 4.02-.82 5.98-1.4 4.04-1.18 7.98-2.79 11.68-4.81 3.2-1.75 7.02-4.03 7.51-8.01.14-1.11-.1-2.33-1.21-2.86-1-.48-2.19-.08-3.17.28-2.01.74-3.8 1.86-5.64 2.92-6.69 3.83-14.29 6.07-21.98 6.55-3.84.24-7.73.08-11.52-.56-1.93-.32-3.87-.74-5.74-1.32-.76-.23-1.57-.5-2.15-1.07-.46-.45-.71-1.07-.54-1.53 0 .02.08-.14.14-.24.01 0 .12-.11.15-.14.07-.04.22-.13.27-.16.15-.05.26-.08.37-.11.05-.01.31-.06.32-.07.15-.02.3-.02.45-.02.4 0 .8.02 1.2.06.02 0 .15.02.2.02.29.05.48.09.67.12.52.11 1.04.22 1.57.32 1.14.22 2.28.41 3.42.58 4.27.62 8.68.73 12.9-.31 4.25-1.04 8.03-3.35 11.77-5.53l12.03-7.01c2.02-1.18 4.04-2.36 6.07-3.54 1.72-1 3.58-1.94 4.77-3.6 1.09-1.51 1.29-3.77.14-5.3z" fill="#ff128f"/></svg>